<svg width="590" height="595" viewBox="0 0 590 595" fill="none" xmlns="http://www.w3.org/2000/svg">
<g opacity="0.5">
<path d="M583.088 287.624L583.15 290.218C583.105 291.03 583.04 291.836 583.008 292.648C582.727 298.689 582.575 304.733 581.819 310.76C580.911 318.009 580.049 325.284 579.753 332.571C579.233 344.042 579.155 355.541 578.921 367.024C578.798 372.931 578.721 378.83 577.851 384.697C576.842 391.541 575.951 398.408 575.047 405.262C573.804 415.233 571.778 425.089 568.987 434.742C564.961 448.181 560.078 461.349 554.37 474.165C549.541 485.079 544.081 495.652 537.391 505.573C527.312 520.567 513.736 532.885 497.835 541.464C489.304 546.129 480.233 549.361 470.914 551.996C458.024 555.633 444.935 557.776 431.504 557.559C422.725 557.415 413.96 556.814 405.244 555.76C395.352 554.568 385.551 552.874 376.03 549.888C354.964 543.23 334.939 533.639 316.548 521.398C303.035 512.469 289.647 503.35 276.166 494.375C268.074 488.924 259.635 484.006 250.903 479.654C239.449 474.01 227.47 469.728 215.26 466.062C204.975 462.871 194.476 460.417 183.843 458.719C170.563 456.727 157.167 455.835 143.783 455.156C131.874 454.551 119.987 453.79 108.184 451.944C99.2256 450.657 90.5313 447.948 82.4286 443.918C72.1501 438.743 62.6429 432.162 54.1807 424.365C41.3751 412.493 30.1545 399.349 21.6131 384.039C13.5739 369.63 8.82049 354.246 8.01055 337.715C7.56396 328.402 8.55376 319.184 10.1484 310.023C12.3944 296.947 17.5187 284.534 25.152 273.68C30.7457 265.661 37.4811 258.697 44.787 252.244C52.093 245.792 60.0693 239.959 67.8268 233.93C75.5264 228.086 82.811 221.715 89.6283 214.862C101.537 202.751 112.339 189.6 121.906 175.567C126.256 169.34 130.147 162.805 133.546 156.013C140.309 141.91 145.04 126.921 147.599 111.492C149.081 102.781 150.531 94.0583 152.156 85.3765C153.819 76.1935 156.49 67.2221 160.125 58.6261C167.904 40.6588 180.795 27.9518 199.131 20.9251C211.643 16.1363 224.668 14.5985 237.93 15.3322C256.916 16.4283 275.68 19.9785 293.753 25.8942C320.221 34.4221 343.985 47.8366 365.349 65.5465C378.597 76.5953 389.897 89.7874 398.78 104.574C405.161 115.065 410.368 126.142 415.081 137.466C418.347 145.315 421.485 153.225 424.964 160.984C429.348 170.987 435.251 180.254 442.463 188.456C447.352 193.935 452.902 198.517 459.69 201.491C465.376 204.07 471.292 206.111 477.358 207.587C483.767 209.065 490.24 210.27 496.689 211.585C504.972 213.284 513.266 214.943 521.536 216.675C529.698 218.331 537.572 221.175 544.907 225.116C552.391 229.11 559.11 234.396 564.753 240.728C574.388 251.627 580.005 264.362 582.087 278.734C582.535 281.701 582.769 284.667 583.088 287.624Z" fill="#012F63"/>
</g>
<path d="M484.938 447.764C481.35 451.568 476.774 456.07 473.545 459.995C467.365 467.497 461.284 475.1 455.526 482.929C452.892 486.49 450.948 490.589 449.062 494.614C446.886 499.266 444.247 499.84 440.459 496.405C436.966 493.244 433.272 490.246 429.516 487.375C426.223 484.852 422.614 484.562 418.869 486.564C406.53 493.155 393.853 499.176 381.92 506.426C369.381 514.055 357.554 522.842 345.41 531.124C344.826 531.53 344.257 531.973 343.64 532.32C341.775 533.374 339.905 533.553 338.672 531.514C337.339 529.312 338.73 528.295 340.595 527.126C347.001 523.116 353.16 518.696 359.561 514.734C379.129 502.617 398.796 490.678 418.357 478.566C420.902 476.986 423.173 476.749 425.654 478.282C431.702 482.007 437.708 485.758 444.483 489.978L479.632 445.636L484 445.188L484.938 447.764Z" fill="white"/>
<path d="M493.554 441.735C492.084 447.567 491.257 453.278 492.874 459.257C493.596 461.929 491.852 463.657 489.112 464.352C483.433 460.575 488.238 453.704 484.081 448.752L483.144 446.176L478.776 446.624C473.06 447.482 467.575 450.628 461.869 447.525C461.342 445.317 461.87 443.726 464.135 443.11C467.344 442.24 470.61 441.577 473.797 440.633C478.075 439.364 482.259 437.746 486.568 436.624C488.475 436.129 490.951 435.844 492.5 436.687C493.512 437.214 493.944 440.154 493.554 441.735Z" fill="white"/>
<path d="M315.121 493.139C314.731 489.646 314.405 486.696 314.067 483.619C312.318 482.707 310.564 481.875 308.899 480.9C303.978 478.008 303.325 472.608 308.193 469.836C313.061 467.065 315.105 463.841 315.485 458.325C315.795 453.815 318.909 452.83 322.608 454.974C322.044 458.472 321.496 461.929 320.911 465.574C323.019 465.743 324.515 465.68 325.9 466.027C327.16 466.343 328.672 466.812 329.409 467.74C330.21 468.746 330.858 470.574 330.463 471.659C329.862 473.398 328.082 473.624 326.28 472.876C324.805 472.265 323.25 471.823 321.612 471.296C319.678 474.662 320.611 478.008 320.095 481.153L329.283 486.206C329.834 486.432 330.355 486.724 330.837 487.075C334.931 490.937 335.742 492.559 330.031 494.914C326.87 496.21 323.614 497.185 320.189 498.381C319.231 500.783 320.068 503.123 321.512 505.314C322.565 506.926 322.297 508.143 320.611 509.002C318.604 509.998 316.991 509.397 316.396 507.264C316.076 505.805 315.928 504.315 315.954 502.822C315.78 497.027 315.59 496.816 309.663 497.085C308.014 497.159 306.375 497.48 304.732 497.485C303.415 497.485 301.955 497.485 300.812 496.958C299.98 496.563 298.942 495.146 299.105 494.445C299.31 493.592 300.58 492.77 301.56 492.391C302.426 492.114 303.37 492.238 304.136 492.728C307.666 495.462 311.175 494.087 315.121 493.139ZM320.426 485.615C319.668 488.281 319.067 490.189 320.869 492.385L325.879 488.408L320.426 485.615ZM313.577 477.997C314.679 475.995 314.679 475.995 313.683 474.104C312.54 475.948 312.54 475.948 313.583 477.997H313.577Z" fill="white"/>
<path d="M117.197 296.325C117.454 296.756 117.314 297.315 116.884 297.573C116.663 297.705 116.395 297.737 116.149 297.661C115.943 297.76 115.702 297.749 115.506 297.633L115.46 297.594C115.33 297.555 115.211 297.485 115.115 297.388L114.965 297.263C114.867 297.178 114.769 297.093 114.671 297.104C113.115 296.331 111.709 295.285 110.519 294.018C110.213 293.644 110.2 293.109 110.488 292.72C110.466 292.344 110.619 291.979 110.902 291.732C111.026 291.205 111.553 290.879 112.08 291.002C112.203 291.031 112.319 291.084 112.422 291.157C114.349 292.537 115.973 294.296 117.197 296.325ZM122.761 301.492C122.257 301.396 121.771 301.727 121.675 302.23C121.63 302.467 121.678 302.712 121.811 302.913C123.06 304.979 124.767 306.732 126.799 308.035C126.965 308.154 127.172 308.203 127.374 308.171C127.818 308.455 128.354 308.733 128.885 309.037C128.972 309.094 129.078 309.109 129.177 309.079C130.067 309.855 131.164 308.449 130.363 307.679C128.243 305.528 126.135 303.469 124.021 301.319C123.614 301.064 123.084 301.137 122.761 301.492ZM135.068 312.838C134.978 312.79 134.876 312.776 134.776 312.795C133.907 312.411 132.992 313.591 133.787 314.269L138.957 318.758C139.204 318.982 139.563 319.034 139.863 318.889C140.312 319.138 140.877 318.977 141.125 318.528C141.319 318.178 141.268 317.743 140.997 317.449L135.997 312.94C135.751 312.691 135.363 312.648 135.068 312.838ZM144.597 322.959L144.844 323.169C144.831 323.258 144.948 323.346 145.052 323.432L151.298 329.429C151.601 329.746 152.103 329.757 152.42 329.455C152.531 329.348 152.609 329.212 152.645 329.061C153.079 328.863 153.271 328.351 153.072 327.916C153.021 327.804 152.946 327.704 152.853 327.623L145.781 321.617C144.911 320.837 143.726 322.231 144.571 322.955L144.597 322.959ZM158.143 332.142C157.307 331.614 156.242 332.669 156.755 333.37C156.621 333.698 156.722 334.076 157.003 334.293L163.845 340.369C164.542 340.962 165.618 340.096 165.296 339.286C165.586 338.934 165.535 338.413 165.182 338.123C165.18 338.121 165.177 338.119 165.174 338.117L163.545 336.91C161.994 335.048 160.163 333.437 158.117 332.139L158.143 332.142ZM172.73 343.734C172.573 343.59 172.368 343.51 172.155 343.508L172.098 343.5C171.206 342.827 170.019 344.227 170.912 344.894L172.594 346.147C174.506 348.035 176.406 349.83 178.319 351.718C178.622 352.035 179.124 352.047 179.441 351.744C179.553 351.637 179.631 351.501 179.666 351.351C180.466 351.409 181.157 350.39 180.414 349.758L172.73 343.734ZM184.118 354.597C183.866 354.87 183.767 355.252 183.854 355.613C183.465 355.844 183.336 356.347 183.567 356.736C183.627 356.836 183.707 356.923 183.803 356.99C185.432 358.203 187.022 359.462 188.651 360.669C189.544 361.335 190.73 359.942 189.838 359.269L189.688 359.144C189.764 358.902 189.691 358.638 189.501 358.47L185.809 354.267C185.48 353.846 184.872 353.772 184.452 354.101C184.29 354.227 184.174 354.401 184.118 354.597ZM197.031 365.649L196.679 365.352C196.402 365.105 195.989 365.086 195.69 365.305C195.18 365.243 194.717 365.605 194.655 366.114C194.619 366.404 194.723 366.694 194.935 366.897C196.334 368.174 197.74 369.452 199.049 370.728C199.158 370.84 199.293 370.924 199.441 370.973C199.833 371.288 200.244 371.579 200.673 371.843L200.73 371.852L200.925 372.022C201.196 372.183 201.539 372.149 201.772 371.938L202.221 372.32C203.068 373.038 204.26 371.639 203.407 370.92C201.46 369.273 199.566 367.569 197.573 365.876C197.443 365.723 197.25 365.64 197.05 365.651L197.031 365.649ZM208.852 375.125L208.651 374.954C207.815 374.425 206.964 375.835 207.707 376.467L208.703 377.316C208.68 377.577 208.785 377.833 208.984 378.004L211.028 379.833C211.201 380.087 211.346 380.357 211.461 380.64C211.68 381.108 212.236 381.309 212.704 381.091C212.993 380.956 213.193 380.683 213.234 380.367C213.668 380.175 213.864 379.669 213.672 379.235C213.62 379.117 213.542 379.012 213.443 378.929L211.554 377.322C210.769 376.473 209.864 375.742 208.867 375.154L208.852 375.125ZM225.997 389.061L221.211 384.997L220.019 383.983C219.173 383.265 217.981 384.658 218.834 385.377L219.081 385.594C219.004 385.823 219.053 386.076 219.211 386.259C219.971 387.081 220.686 387.955 221.433 388.775C221.765 389.14 222.323 389.187 222.711 388.882C223.357 389.338 223.904 389.806 224.543 390.261L225.439 391.037C226.286 391.755 227.479 390.356 226.625 389.638L226.124 389.216L225.997 389.061ZM229.499 393.819L235.478 398.891C236.325 399.609 237.516 398.216 236.663 397.497L230.697 392.473C229.839 391.701 228.669 393.123 229.527 393.849L229.499 393.819ZM248.821 406.395C248.631 406.322 248.487 406.289 248.291 406.215C246.955 405.167 245.665 404.159 244.283 403.163C243.592 402.668 242.411 403.448 242.832 404.246C242.845 404.492 242.962 404.722 243.155 404.875L243.454 405.132C244.086 405.826 244.789 406.453 245.551 407.001C246.429 407.668 247.366 408.255 248.35 408.753C248.401 408.799 248.401 408.799 248.496 408.774L248.645 408.905C249.538 409.572 250.692 408.167 249.831 407.506L249.433 407.17C249.437 406.811 249.188 406.499 248.836 406.423L248.821 406.395ZM255.145 413.192L255.439 413.442C255.42 413.724 255.542 413.997 255.767 414.169C257.414 415.566 258.964 416.968 260.605 418.363C261.452 419.081 262.551 417.792 261.843 417.01C261.929 416.689 261.816 416.346 261.555 416.14L256.371 411.74C255.447 411.063 254.262 412.456 255.179 413.223L255.145 413.192ZM271.852 424.71C270.412 423.576 268.947 422.439 267.492 421.361C266.599 420.695 265.453 422.042 266.306 422.761L272.584 428.09C273.431 428.807 274.623 427.415 273.77 426.696L272.122 425.299C272.139 425.081 272.042 424.869 271.867 424.738L271.852 424.71ZM106.372 298.171C105.902 297.869 105.276 298.006 104.975 298.476C104.921 298.56 104.879 298.651 104.853 298.746C104.544 298.975 104.387 299.355 104.444 299.735C104.106 300.107 104.12 300.678 104.476 301.033C105.641 302.327 107.053 303.377 108.627 304.119C108.703 304.205 108.808 304.262 108.921 304.278L109.071 304.404C109.221 304.529 109.319 304.614 109.41 304.608L109.467 304.616C109.663 304.732 109.904 304.743 110.11 304.645C110.577 304.809 111.089 304.564 111.253 304.097C111.345 303.834 111.31 303.543 111.158 303.309C109.934 301.284 108.305 299.535 106.372 298.171ZM116.786 308.524C116.282 308.428 115.796 308.758 115.7 309.262C115.655 309.498 115.703 309.743 115.836 309.945C117.087 312.011 118.793 313.765 120.823 315.073C120.992 315.187 121.198 315.233 121.4 315.202C121.843 315.493 122.379 315.765 122.911 316.068C122.997 316.125 123.103 316.141 123.202 316.111C124.098 316.887 125.188 315.487 124.388 314.711C122.274 312.561 120.16 310.501 118.046 308.351C117.63 308.147 117.131 308.215 116.786 308.524ZM129.1 319.87C129.008 319.83 128.907 319.815 128.808 319.828C127.933 319.442 127.017 320.623 127.812 321.301L132.974 325.846C133.221 326.071 133.58 326.123 133.88 325.978C134.325 326.233 134.892 326.079 135.147 325.634C135.35 325.281 135.299 324.837 135.02 324.539L130.022 320.023C129.785 319.767 129.406 319.704 129.1 319.87ZM138.628 329.991L138.876 330.202C138.863 330.291 138.986 330.38 139.084 330.465L145.329 336.468C145.639 336.783 146.145 336.787 146.46 336.477C146.566 336.372 146.641 336.239 146.676 336.094C147.111 335.896 147.302 335.383 147.104 334.949C147.053 334.837 146.978 334.737 146.885 334.656L139.806 328.648C138.936 327.869 137.75 329.269 138.597 329.987L138.628 329.991ZM152.173 339.181C151.339 338.646 150.274 339.701 150.787 340.403C150.652 340.731 150.753 341.109 151.034 341.325L157.877 347.402C158.573 347.995 159.65 347.129 159.327 346.319C159.618 345.971 159.572 345.455 159.224 345.164C159.219 345.16 159.212 345.154 159.206 345.15L157.576 343.943C155.977 342.127 154.151 340.525 152.142 339.177L152.173 339.181ZM166.768 350.768C166.605 350.629 166.4 350.549 166.186 350.541L166.129 350.533C165.243 349.867 164.051 351.26 164.944 351.926L166.625 353.179C168.538 355.067 170.444 356.864 172.35 358.751C172.653 359.068 173.156 359.079 173.473 358.777C173.584 358.67 173.662 358.534 173.697 358.384C174.206 358.443 174.667 358.077 174.726 357.568C174.759 357.279 174.656 356.992 174.446 356.791C171.845 354.829 169.31 352.773 166.736 350.763L166.768 350.768ZM178.2 361.637C177.945 361.911 177.844 362.294 177.929 362.659C177.54 362.889 177.411 363.392 177.642 363.781C177.702 363.882 177.782 363.968 177.878 364.035C179.508 365.242 181.098 366.501 182.727 367.708C183.62 368.374 184.806 366.981 183.913 366.314L183.764 366.183C183.861 365.942 183.784 365.666 183.577 365.509C182.362 364.116 181.089 362.683 179.874 361.291C179.535 360.869 178.919 360.801 178.497 361.139C178.339 361.266 178.224 361.438 178.168 361.632L178.2 361.637ZM191.106 372.688L190.755 372.391C190.477 372.143 190.062 372.126 189.765 372.351C189.26 372.287 188.798 372.644 188.734 373.149C188.696 373.442 188.802 373.735 189.017 373.937C190.417 375.214 191.815 376.497 193.125 377.767C193.232 377.882 193.367 377.966 193.517 378.012C193.906 378.332 194.318 378.623 194.749 378.882L194.806 378.891L195.001 379.061C195.271 379.224 195.615 379.19 195.848 378.977L196.297 379.359C197.144 380.077 198.335 378.685 197.483 377.959C195.536 376.312 193.641 374.614 191.648 372.922C191.455 372.738 191.265 372.756 191.075 372.683L191.106 372.688ZM202.928 382.164L202.727 381.993C201.891 381.464 201.04 382.874 201.789 383.506L202.785 384.356C202.755 384.617 202.859 384.874 203.06 385.043L205.111 386.873C205.281 387.126 205.424 387.396 205.537 387.679C205.756 388.147 206.312 388.348 206.78 388.13C207.068 387.995 207.268 387.722 207.31 387.406C207.745 387.207 207.936 386.695 207.738 386.261C207.687 386.148 207.612 386.048 207.519 385.968L205.624 384.36C204.778 383.558 203.865 382.83 202.893 382.185L202.928 382.164ZM220.041 396.102L215.255 392.038L214.063 391.024C213.216 390.306 212.024 391.705 212.877 392.424L213.124 392.635C213.049 392.865 213.101 393.118 213.26 393.301C214.015 394.122 214.729 394.995 215.482 395.823C215.817 396.182 216.37 396.229 216.76 395.93C217.399 396.385 217.922 396.843 218.592 397.302L219.483 398.078C220.329 398.796 221.521 397.404 220.668 396.685L220.174 396.257L220.041 396.102ZM223.503 400.912L229.474 405.989C230.327 406.708 231.514 405.308 230.667 404.59L224.689 399.512C223.839 398.814 222.653 400.213 223.5 400.931L223.503 400.912ZM242.866 413.423C242.677 413.344 242.532 413.317 242.337 413.237C241.001 412.189 239.711 411.187 238.328 410.191C237.638 409.69 236.457 410.469 236.878 411.274C236.888 411.521 237.006 411.751 237.2 411.903L237.494 412.153C238.125 412.851 238.83 413.478 239.597 414.023C240.473 414.694 241.41 415.283 242.395 415.781C242.446 415.788 242.446 415.788 242.541 415.802L242.684 415.926C243.577 416.593 244.763 415.199 243.871 414.526L243.473 414.191C243.443 413.84 243.195 413.547 242.854 413.461L242.866 413.423ZM249.145 420.266L249.445 420.516C249.437 420.788 249.561 421.047 249.777 421.211C251.425 422.608 252.974 424.01 254.616 425.406C255.461 426.13 256.561 424.834 255.853 424.052C255.937 423.729 255.822 423.387 255.559 423.182L250.375 418.782C249.433 418.147 248.247 419.54 249.139 420.304L249.145 420.266ZM265.848 431.854C264.408 430.72 262.943 429.583 261.488 428.511C260.596 427.839 259.449 429.186 260.302 429.905L266.579 435.194C267.425 435.919 268.618 434.52 267.765 433.801L266.124 432.405C266.163 432.18 266.051 431.957 265.848 431.854ZM107.99 314.939C107.486 314.843 107 315.174 106.904 315.677C106.859 315.914 106.907 316.159 107.04 316.361C108.296 318.426 110.003 320.179 112.033 321.49C112.201 321.607 112.408 321.653 112.61 321.619C113.098 321.934 113.602 322.223 114.121 322.485C114.204 322.541 114.31 322.556 114.406 322.526C115.302 323.303 116.398 321.903 115.591 321.133C113.478 318.976 111.369 316.924 109.25 314.766C108.847 314.495 108.305 314.569 107.99 314.939ZM120.251 326.246C120.16 326.205 120.058 326.19 119.959 326.204C119.09 325.819 118.175 326.999 118.97 327.677L124.14 332.166C124.387 332.39 124.746 332.442 125.046 332.297C125.495 332.546 126.059 332.385 126.308 331.936C126.502 331.587 126.45 331.152 126.18 330.858L121.181 326.342C120.905 326.163 120.558 326.127 120.251 326.246ZM129.775 336.399L130.029 336.61C130.015 336.705 130.132 336.793 130.23 336.872L136.475 342.875C136.779 343.192 137.281 343.203 137.598 342.9C137.71 342.792 137.789 342.653 137.823 342.501C138.255 342.306 138.448 341.799 138.253 341.367C138.202 341.253 138.126 341.151 138.031 341.069L130.958 335.063C130.139 334.291 128.956 335.672 129.832 336.407L129.775 336.399ZM143.32 345.588C142.485 345.06 141.421 346.108 141.939 346.818C141.808 347.145 141.906 347.518 142.18 347.739L149.023 353.815C149.719 354.408 150.802 353.543 150.473 352.732C150.763 352.38 150.712 351.859 150.36 351.569C150.357 351.567 150.355 351.565 150.352 351.563L148.717 350.349C147.192 348.5 145.39 346.897 143.377 345.597L143.32 345.588ZM157.914 357.181C157.754 357.037 157.547 356.956 157.332 356.955L157.287 356.909C156.394 356.243 155.208 357.643 156.101 358.309L157.783 359.556C159.688 361.449 161.595 363.246 163.507 365.134C163.81 365.451 164.313 365.462 164.63 365.159C164.742 365.051 164.821 364.912 164.855 364.76C165.36 364.824 165.822 364.467 165.886 363.962C165.924 363.669 165.818 363.376 165.603 363.174L157.914 357.181ZM169.282 368.002C169.03 368.278 168.93 368.661 169.017 369.025C168.627 369.254 168.496 369.756 168.726 370.146C168.785 370.247 168.865 370.333 168.96 370.401C170.596 371.608 172.186 372.867 173.815 374.074C174.708 374.741 175.894 373.347 175.001 372.681L174.852 372.549C174.942 372.308 174.867 372.036 174.665 371.875L170.996 367.643C170.619 367.24 169.987 367.219 169.585 367.595C169.463 367.709 169.372 367.851 169.32 368.008L169.282 368.002ZM182.241 379.093L181.895 378.797C181.614 378.551 181.199 378.533 180.899 378.756C180.394 378.692 179.932 379.049 179.868 379.554C179.83 379.847 179.936 380.141 180.151 380.343C181.55 381.626 182.949 382.902 184.259 384.173C184.368 384.285 184.503 384.368 184.651 384.417C185.045 384.732 185.459 385.021 185.89 385.282L185.936 385.328L186.137 385.499C186.405 385.66 186.747 385.626 186.977 385.414L187.427 385.79C188.273 386.514 189.466 385.115 188.613 384.396C186.673 382.744 184.771 381.045 182.779 379.352C182.668 379.186 182.478 379.089 182.279 379.099L182.241 379.093ZM194.062 388.57L193.866 388.406C193.032 387.871 192.174 389.279 192.922 389.918L193.919 390.761C193.891 391.022 193.994 391.279 194.195 391.448L196.245 393.279C196.415 393.533 196.558 393.806 196.67 394.091C196.895 394.559 197.457 394.757 197.926 394.531C198.208 394.396 198.405 394.129 198.45 393.818C198.884 393.62 199.076 393.108 198.877 392.673C198.826 392.561 198.752 392.461 198.659 392.38L196.781 390.788C195.953 389.981 195.054 389.249 194.096 388.601L194.062 388.57ZM211.155 402.466L206.375 398.403L205.222 397.433C204.376 396.709 203.184 398.108 204.037 398.827L204.291 399.038C204.203 399.267 204.254 399.525 204.421 399.704C205.18 400.532 205.895 401.405 206.643 402.225C206.975 402.588 207.531 402.635 207.921 402.333C208.56 402.788 209.081 403.252 209.752 403.711L210.648 404.488C211.494 405.212 212.687 403.813 211.834 403.095L211.332 402.673L211.155 402.466ZM214.715 407.264L220.721 412.372C221.575 413.091 222.76 411.698 221.914 410.973L215.935 405.902C215.042 405.235 213.903 406.577 214.75 407.295L214.715 407.264ZM234.037 419.847C233.84 419.773 233.696 419.739 233.506 419.667C232.164 418.618 230.874 417.61 229.492 416.613C228.802 416.112 227.627 416.899 228.041 417.697C228.054 417.943 228.171 418.172 228.364 418.326L228.663 418.583C229.293 419.279 229.995 419.906 230.76 420.452C231.637 421.12 232.574 421.707 233.559 422.203C233.616 422.212 233.616 422.212 233.705 422.225L233.855 422.35C234.741 423.015 235.901 421.618 235.04 420.956L234.643 420.614C234.638 420.269 234.404 419.968 234.071 419.878L234.037 419.847ZM240.291 426.679L240.591 426.93C240.569 427.212 240.693 427.486 240.919 427.656C242.56 429.052 244.109 430.454 245.757 431.851C246.603 432.575 247.703 431.28 246.988 430.497C247.077 430.175 246.963 429.832 246.7 429.627L241.517 425.227C240.636 424.562 239.45 425.962 240.291 426.679ZM257.098 438.173C255.658 437.039 254.193 435.901 252.739 434.824C251.846 434.157 250.7 435.498 251.553 436.217L257.824 441.551C258.671 442.269 259.863 440.87 259.01 440.151L257.369 438.755C257.359 438.54 257.262 438.337 257.102 438.193L257.098 438.173ZM96.4799 317.184C95.9758 317.091 95.492 317.425 95.3995 317.929C95.3565 318.164 95.4054 318.406 95.5362 318.606C96.8135 320.7 98.5449 322.481 100.602 323.817C100.771 323.931 100.977 323.977 101.179 323.946C101.664 324.265 102.169 324.554 102.69 324.812C102.775 324.871 102.882 324.887 102.981 324.854C103.877 325.631 104.967 324.23 104.166 323.46C102.053 321.304 99.8417 319.159 97.7278 317.009C97.3279 316.742 96.7911 316.817 96.4799 317.184ZM108.995 328.702C108.904 328.661 108.803 328.647 108.704 328.659C107.828 328.274 106.913 329.454 107.714 330.133L112.949 334.67C113.197 334.891 113.553 334.943 113.855 334.801C114.286 335.071 114.855 334.938 115.124 334.507C115.353 334.14 115.296 333.664 114.988 333.361C113.272 331.819 111.593 330.282 109.944 328.807C109.68 328.578 109.302 328.536 108.995 328.702ZM118.695 338.983L118.941 339.2C118.929 339.289 119.045 339.377 119.149 339.463L125.472 345.555C125.774 345.872 126.277 345.883 126.594 345.581C126.705 345.474 126.783 345.338 126.819 345.188C127.253 344.989 127.444 344.477 127.246 344.042C127.195 343.93 127.12 343.83 127.027 343.749L119.851 337.657C118.984 336.813 117.796 338.225 118.695 338.983ZM132.435 348.344C131.554 347.77 130.535 348.864 131.053 349.573C130.923 349.9 131.02 350.274 131.295 350.494L138.289 356.683C138.702 356.999 139.292 356.921 139.608 356.508C139.806 356.249 139.856 355.905 139.74 355.6C140.03 355.248 139.979 354.727 139.627 354.437C139.624 354.435 139.621 354.433 139.618 354.431L137.937 353.178C136.335 351.32 134.484 349.693 132.435 348.344ZM147.231 360.102C147.075 359.952 146.866 359.87 146.649 359.875L146.597 359.835C145.704 359.169 144.473 360.523 145.412 361.229L147.164 362.524C149.076 364.419 151.07 366.325 152.986 368.188C153.296 368.502 153.803 368.506 154.118 368.196C154.224 368.091 154.299 367.959 154.334 367.814C154.839 367.878 155.301 367.521 155.365 367.016C155.403 366.723 155.297 366.43 155.082 366.228L147.231 360.102ZM158.858 371.142C158.606 371.415 158.507 371.796 158.594 372.158C158.204 372.387 158.074 372.889 158.303 373.279C158.362 373.38 158.442 373.466 158.537 373.534C160.172 374.748 161.808 376.046 163.438 377.252C164.383 377.965 165.568 376.572 164.63 375.86L164.48 375.735C164.57 375.493 164.495 375.221 164.293 375.061L160.486 370.757C160.099 370.373 159.475 370.377 159.092 370.763C158.986 370.87 158.906 370.999 158.858 371.142ZM172.019 382.404L171.667 382.107C171.399 381.839 170.97 381.818 170.678 382.061C170.174 381.988 169.707 382.338 169.634 382.841C169.59 383.143 169.699 383.446 169.923 383.652C171.329 384.93 172.78 386.253 174.133 387.581C174.242 387.694 174.377 387.777 174.525 387.826C174.933 388.157 175.362 388.461 175.809 388.737L175.861 388.783L176.057 388.947C176.309 389.158 176.685 389.125 176.896 388.873C176.898 388.869 176.901 388.866 176.904 388.863L177.353 389.245C177.751 389.557 178.326 389.488 178.638 389.09C178.932 388.714 178.889 388.175 178.538 387.852C176.545 386.159 174.593 384.414 172.6 382.721C172.481 382.515 172.256 382.393 172.019 382.404ZM184.032 392.077L183.837 391.906C182.95 391.331 182.144 392.786 182.893 393.419L183.89 394.262C183.865 394.522 183.967 394.778 184.165 394.949L186.268 396.819C186.438 397.071 186.581 397.342 186.694 397.625C186.913 398.092 187.469 398.294 187.937 398.075C188.226 397.941 188.426 397.667 188.468 397.351C188.902 397.153 189.093 396.641 188.895 396.206C188.844 396.094 188.769 395.994 188.676 395.913L186.768 394.304C185.924 393.482 185.008 392.737 184.032 392.077ZM201.422 406.242L196.631 402.125L195.381 401.064C194.994 400.737 194.416 400.785 194.088 401.171C193.76 401.558 193.808 402.136 194.195 402.464L194.449 402.676C194.362 402.87 194.426 403.099 194.635 403.35C195.389 404.177 196.103 405.05 196.857 405.871C197.192 406.231 197.745 406.277 198.135 405.979C198.774 406.434 199.374 406.941 199.967 407.357L200.857 408.133C201.255 408.445 201.83 408.376 202.142 407.978C202.436 407.602 202.393 407.063 202.042 406.74L201.547 406.318L201.422 406.242ZM204.989 411.132L211.064 416.295C211.451 416.623 212.029 416.575 212.357 416.189C212.685 415.802 212.637 415.223 212.25 414.896L206.174 409.739C205.748 409.465 205.182 409.588 204.909 410.014C204.688 410.358 204.721 410.806 204.991 411.113L204.989 411.132ZM224.649 423.919C224.46 423.84 224.315 423.812 224.119 423.732C222.784 422.685 221.441 421.636 220.04 420.637C219.297 420.096 218.175 420.923 218.589 421.721C218.602 421.967 218.719 422.196 218.912 422.35L219.211 422.607C219.857 423.319 220.577 423.959 221.36 424.516C222.25 425.201 223.203 425.803 224.205 426.313C224.256 426.359 224.256 426.359 224.35 426.334L224.5 426.459C225.393 427.126 226.625 425.771 225.686 425.066L225.289 424.723C225.249 424.35 225.002 424.032 224.651 423.9L224.649 423.919ZM231.025 430.847L231.325 431.097C231.306 431.379 231.429 431.652 231.653 431.824C233.3 433.221 234.895 434.668 236.542 436.065C236.951 436.369 237.528 436.284 237.832 435.875C238.093 435.524 238.071 435.038 237.78 434.711C237.866 434.389 237.75 434.046 237.486 433.841L232.257 429.395C231.321 428.671 230.135 430.064 231.027 430.828L231.025 430.847ZM248.302 443.113C248.306 442.889 248.184 442.681 247.986 442.576C246.5 441.403 245.085 440.273 243.528 439.148C242.635 438.482 241.443 439.784 242.342 440.541L242.921 441.013C242.946 441.229 243.061 441.424 243.237 441.551L248.79 445.907C249.368 446.379 249.955 446.794 250.477 447.252C251.369 447.925 252.515 446.577 251.662 445.858C251.116 445.391 250.496 444.978 249.975 444.514L248.302 443.113ZM91.4919 327.224C90.7893 327.252 90.1731 327.977 90.6797 328.588C91.0471 328.971 91.3877 329.379 91.6992 329.809C91.6863 329.898 91.7568 329.947 91.763 330.038C92.9784 332.077 94.653 333.804 96.6528 335.082C96.8209 335.198 97.0276 335.245 97.2292 335.21C97.699 335.508 98.1874 335.776 98.6914 336.011C98.7776 336.068 98.884 336.084 98.9829 336.053C99.8296 336.771 100.969 335.429 100.169 334.654C98.1013 332.542 96.045 330.53 93.9582 328.416C93.8178 328.301 93.652 328.222 93.4744 328.184L93.1236 327.079C92.8607 326.394 91.8355 326.595 91.4965 327.192L91.4919 327.224ZM104.771 339.72C104.682 339.679 104.583 339.665 104.486 339.678C103.662 339.339 102.695 340.473 103.49 341.151L108.529 345.517C108.755 345.739 109.099 345.789 109.378 345.64C109.836 345.879 110.401 345.701 110.639 345.243C110.816 344.904 110.768 344.491 110.518 344.201L105.669 339.817C105.41 339.623 105.065 339.585 104.771 339.72ZM114.077 349.685L114.324 349.896C114.31 349.991 114.433 350.08 114.532 350.159L120.608 356.034C121.063 356.507 121.696 356.159 121.956 355.66C122.39 355.462 122.581 354.949 122.383 354.515C122.332 354.403 122.257 354.303 122.164 354.222L115.254 348.349C114.418 347.555 113.233 348.948 114.077 349.685ZM127.322 358.618C126.487 358.09 125.422 359.145 125.941 359.847C125.803 360.174 125.902 360.552 126.183 360.769L132.875 366.72C133.572 367.313 134.602 366.408 134.268 365.59C134.563 365.27 134.543 364.772 134.224 364.477C134.199 364.455 134.174 364.434 134.147 364.414L132.517 363.208C131.046 361.403 129.292 359.846 127.325 358.599L127.322 358.618ZM141.565 369.914C141.425 369.776 141.23 369.709 141.034 369.734L140.989 369.689C140.096 369.022 138.942 370.427 139.803 371.089L141.485 372.335C143.345 374.183 145.199 375.94 147.06 377.782C147.515 378.262 148.144 377.939 148.407 377.414C148.916 377.473 149.377 377.108 149.436 376.599C149.469 376.31 149.366 376.023 149.156 375.822L141.565 369.914ZM152.706 380.515C152.449 380.788 152.347 381.172 152.435 381.537C152.046 381.755 151.909 382.247 152.127 382.635C152.179 382.727 152.248 382.808 152.331 382.874C153.916 384.035 155.451 385.267 157.031 386.421C157.924 387.087 159.109 385.694 158.223 385.022L158.073 384.896C158.18 384.669 158.125 384.397 157.937 384.23L154.274 380.096C153.863 379.447 152.855 379.929 152.706 380.515ZM165.364 391.355L165.019 391.059C164.73 390.836 164.33 390.82 164.023 391.018C163.262 390.908 162.526 391.972 163.223 392.565C164.576 393.802 165.931 395.034 167.206 396.319C167.355 396.45 167.46 396.53 167.552 396.524C167.944 396.839 168.355 397.131 168.784 397.395L168.841 397.403L168.991 397.528C169.258 397.692 169.602 397.657 169.831 397.443L170.28 397.825C171.127 398.543 172.319 397.15 171.466 396.432C169.571 394.824 167.677 393.12 165.782 391.513C165.684 391.38 165.52 391.316 165.359 391.348L165.364 391.355ZM176.889 400.608L176.687 400.436C175.852 399.907 175 401.317 175.697 401.91L176.644 402.694C176.618 402.955 176.721 403.212 176.92 403.381L178.919 405.165C179.073 405.407 179.2 405.663 179.299 405.932C179.638 406.848 181.026 406.421 181.026 405.619C181.461 405.421 181.652 404.909 181.454 404.474C181.403 404.362 181.328 404.262 181.235 404.181L179.448 402.628C178.658 401.874 177.8 401.195 176.883 400.6L176.889 400.608ZM193.631 414.201L189.022 410.298L187.87 409.322C187.023 408.604 185.831 410.003 186.684 410.722L186.931 410.933C186.856 411.163 186.908 411.416 187.067 411.599C187.776 412.381 188.49 413.254 189.198 414.036C189.531 414.399 190.087 414.446 190.476 414.144C191.064 414.553 191.669 415.061 192.262 415.477L193.152 416.253C193.999 416.971 195.192 415.572 194.339 414.853L193.843 414.432L193.631 414.201ZM197.035 418.873L202.863 423.826C203.71 424.544 204.902 423.145 204.049 422.426L198.22 417.479C197.421 416.794 196.241 418.195 197.03 418.866L197.035 418.873ZM215.959 431.12C215.769 431.041 215.625 431.013 215.429 430.933C214.145 429.932 212.855 428.923 211.518 427.972C210.828 427.471 209.7 428.291 210.067 429.056C210.08 429.303 210.197 429.534 210.389 429.691L210.689 429.942C211.302 430.624 211.987 431.238 212.733 431.771C213.597 432.42 214.52 432.987 215.489 433.464C215.535 433.503 215.535 433.503 215.635 433.486L215.779 433.61C216.672 434.276 217.857 432.883 216.965 432.21L216.567 431.874C216.587 431.497 216.328 431.162 215.957 431.087L215.959 431.12ZM222.082 437.739L222.381 437.996C222.338 438.258 222.444 438.522 222.656 438.683C224.251 440.039 225.801 441.441 227.345 442.752C228.198 443.471 229.29 442.18 228.582 441.399C228.672 441.1 228.577 440.777 228.34 440.574L223.312 436.3C222.421 435.712 221.285 437.035 222.076 437.732L222.082 437.739ZM238.818 449.636L238.714 449.55C238.687 449.336 238.572 449.143 238.396 449.019C237.009 447.925 235.575 446.792 234.141 445.756C233.248 445.09 232.102 446.431 232.956 447.149L237.684 451.166L241.3 454.686C242.108 455.45 243.292 454.063 242.486 453.286L240.625 451.444C240.607 451.25 240.512 451.071 240.361 450.947L238.818 449.636ZM86.1318 336.441C85.594 336.385 85.1117 336.775 85.0557 337.313C85.0378 337.485 85.0657 337.659 85.1366 337.816C86.3551 339.852 88.0291 341.579 90.0265 342.86C90.1945 342.976 90.4013 343.023 90.6029 342.988C91.0718 343.287 91.5609 343.555 92.0651 343.789C92.1513 343.846 92.2577 343.862 92.3565 343.831C93.2033 344.549 94.3423 343.207 93.5428 342.432C91.475 340.321 89.4187 338.308 87.3319 336.194C86.9195 336.018 86.4415 336.116 86.1318 336.441ZM98.1464 347.53C98.0553 347.489 97.954 347.475 97.855 347.488C97.0309 347.149 96.0644 348.283 96.865 348.962L101.898 353.327C102.127 353.549 102.472 353.599 102.754 353.451C103.214 353.684 103.776 353.5 104.009 353.039C104.18 352.703 104.132 352.298 103.888 352.011L99.0379 347.627C98.772 347.459 98.4427 347.423 98.1464 347.53ZM107.448 357.476L107.696 357.687C107.682 357.782 107.806 357.864 107.904 357.95L113.973 363.824C114.428 364.297 115.063 363.982 115.321 363.45C115.755 363.251 115.947 362.739 115.748 362.305C115.697 362.193 115.623 362.092 115.53 362.012L108.619 356.139C107.788 355.358 106.602 356.758 107.448 357.476ZM120.694 366.409C119.859 365.88 118.794 366.935 119.306 367.637C119.174 367.965 119.275 368.342 119.554 368.559L126.247 374.511C126.943 375.103 127.975 374.192 127.64 373.38C127.935 373.061 127.915 372.563 127.596 372.268C127.571 372.246 127.546 372.224 127.519 372.205L125.889 370.998C124.39 369.224 122.64 367.678 120.694 366.409ZM134.936 377.705C134.797 377.567 134.601 377.5 134.406 377.525L134.355 377.479C133.468 376.813 132.308 378.21 133.169 378.878L134.851 380.125C136.711 381.973 138.565 383.73 140.432 385.572C140.88 386.051 141.52 385.698 141.779 385.205C142.288 385.264 142.749 384.899 142.808 384.39C142.841 384.101 142.738 383.814 142.528 383.612L134.936 377.705ZM146.069 388.318C145.817 388.593 145.718 388.976 145.805 389.34C145.416 389.559 145.279 390.05 145.497 390.438C145.549 390.531 145.618 390.612 145.701 390.677C147.28 391.837 148.821 393.07 150.401 394.224C151.294 394.89 152.479 393.497 151.587 392.824L151.437 392.699C151.549 392.473 151.496 392.2 151.307 392.033L147.65 387.855C147.186 387.309 146.224 387.738 146.069 388.318ZM158.728 399.158L158.383 398.862C158.094 398.634 157.693 398.618 157.386 398.821C156.626 398.711 155.89 399.775 156.586 400.367C157.94 401.605 159.288 402.835 160.57 404.121C160.72 404.246 160.824 404.332 160.915 404.326C161.307 404.642 161.719 404.933 162.147 405.197L162.2 405.237L162.35 405.362C162.617 405.526 162.961 405.491 163.19 405.277L163.639 405.659C164.486 406.377 165.678 404.985 164.825 404.266C162.931 402.652 161.036 400.954 159.141 399.347C159.051 399.209 158.891 399.135 158.728 399.158ZM170.252 408.41L170.051 408.239C169.215 407.71 168.358 409.119 169.061 409.712L170.008 410.496C169.981 410.757 170.084 411.014 170.284 411.183L172.282 412.967C172.436 413.209 172.563 413.466 172.663 413.734C173.003 414.644 174.39 414.224 174.384 413.421C174.818 413.223 175.009 412.71 174.811 412.276C174.76 412.164 174.685 412.064 174.592 411.983L172.806 410.43C172.019 409.679 171.164 409.003 170.252 408.41ZM186.995 422.003L182.386 418.1L181.234 417.125C180.387 416.407 179.194 417.806 180.047 418.525L180.295 418.735C180.218 418.965 180.267 419.217 180.425 419.401C181.144 420.152 181.854 421.057 182.562 421.839C182.895 422.202 183.451 422.249 183.84 421.947C184.427 422.355 185.033 422.864 185.619 423.278L186.516 424.055C187.363 424.773 188.555 423.374 187.702 422.656L187.207 422.234L186.995 422.003ZM190.359 426.728L196.187 431.681C197.034 432.399 198.226 431 197.373 430.281L191.544 425.334C190.775 424.66 189.558 426.049 190.359 426.728ZM209.322 438.922C209.133 438.843 208.988 438.816 208.793 438.736C207.502 437.733 206.213 436.725 204.883 435.769C204.191 435.274 203.063 436.093 203.432 436.852C203.442 437.1 203.56 437.332 203.754 437.487L204.054 437.738C204.663 438.423 205.349 439.037 206.098 439.567C206.961 440.215 207.88 440.781 208.847 441.26C208.904 441.268 208.904 441.268 208.993 441.281L209.143 441.406C210.036 442.073 211.221 440.679 210.329 440.006L209.932 439.67C209.901 439.319 209.659 439.023 209.322 438.922ZM215.399 445.593L215.698 445.85C215.655 446.114 215.764 446.379 215.98 446.538C217.57 447.887 219.125 449.296 220.668 450.607C221.515 451.325 222.608 450.034 221.9 449.253C221.99 448.955 221.898 448.633 221.663 448.429L216.634 444.123C215.79 443.521 214.604 444.921 215.399 445.593ZM232.129 457.399C232.133 457.174 232.01 456.966 231.812 456.861C230.424 455.774 228.984 454.64 227.551 453.597C226.664 452.932 225.511 454.278 226.364 454.997L227.517 455.967C227.431 456.288 227.544 456.63 227.805 456.836C229.239 457.879 230.745 458.867 232.147 459.905L232.551 460.241L232.591 460.189L233.133 460.559C234.071 461.18 235.211 459.832 234.318 459.165C233.979 458.961 233.679 458.71 233.385 458.551L232.089 457.451L232.129 457.399ZM80.117 349.146C80.6346 349.618 81.1979 350.038 81.7982 350.399C81.9655 350.512 82.1691 350.557 82.3683 350.527C82.8415 350.823 83.3318 351.091 83.8368 351.328C83.923 351.386 84.0294 351.401 84.1283 351.371C84.975 352.089 86.115 350.74 85.3145 349.971C83.9548 348.642 82.6414 347.261 81.2817 345.932C80.9533 347.081 80.4985 348.121 80.117 349.146ZM89.9145 355.095C89.8237 355.051 89.7224 355.037 89.623 355.053C88.799 354.713 87.8324 355.847 88.6331 356.526L93.6665 360.892C93.895 361.114 94.2396 361.164 94.5218 361.016C94.9822 361.249 95.5445 361.064 95.7775 360.604C95.9479 360.268 95.8999 359.863 95.6556 359.576L90.806 355.192C90.5601 355.001 90.2315 354.956 89.9435 355.073L89.9145 355.095ZM99.2482 365L99.4958 365.211C99.4829 365.299 99.5995 365.387 99.6971 365.473L105.768 371.25C106.223 371.723 106.862 371.376 107.115 370.882C107.549 370.684 107.741 370.172 107.542 369.737C107.491 369.625 107.416 369.525 107.323 369.444L100.453 363.603C99.5849 362.901 98.3987 364.301 99.2482 365ZM112.494 373.933C111.659 373.404 110.587 374.459 111.106 375.161C110.972 375.489 111.073 375.867 111.354 376.083L118.046 382.035C118.743 382.627 119.768 381.715 119.434 380.897C119.728 380.577 119.707 380.079 119.386 379.785C119.365 379.765 119.342 379.746 119.319 379.729L117.683 378.521C116.208 376.73 114.455 375.187 112.491 373.952L112.494 373.933ZM126.736 385.229C126.598 385.089 126.403 385.02 126.207 385.042L126.155 385.002C125.262 384.336 124.076 385.73 124.968 386.402L126.651 387.649C128.511 389.497 130.366 391.247 132.226 393.095C132.681 393.569 133.32 393.222 133.573 392.728C134.082 392.787 134.542 392.422 134.601 391.913C134.635 391.624 134.531 391.337 134.321 391.135L126.736 385.229ZM137.869 395.842C137.613 396.116 137.514 396.5 137.604 396.864C137.217 397.077 137.077 397.564 137.29 397.951C137.341 398.045 137.412 398.127 137.496 398.194C139.079 399.361 140.616 400.587 142.2 401.748C143.093 402.414 144.28 401.015 143.387 400.348L143.237 400.223C143.343 399.996 143.29 399.727 143.107 399.557L139.445 395.41C139.023 394.799 138.016 395.274 137.866 395.861L137.869 395.842ZM150.528 406.682L150.176 406.385C149.891 406.157 149.49 406.141 149.186 406.345C148.426 406.234 147.689 407.299 148.386 407.891C149.734 409.122 151.088 410.359 152.37 411.645C152.52 411.77 152.617 411.856 152.709 411.849C153.103 412.165 153.516 412.454 153.948 412.715L153.993 412.76L154.143 412.885C154.413 413.048 154.757 413.014 154.99 412.801L155.439 413.183C156.286 413.901 157.478 412.509 156.625 411.783C154.73 410.176 152.829 408.477 150.94 406.871C150.84 406.746 150.679 406.688 150.522 406.72L150.528 406.682ZM162.047 415.927L161.851 415.763C161.016 415.228 160.158 416.643 160.854 417.235L161.802 418.02C161.779 418.281 161.884 418.537 162.083 418.707L164.082 420.491C164.236 420.732 164.361 420.988 164.456 421.257C164.797 422.167 166.19 421.748 166.183 420.945C166.618 420.747 166.809 420.234 166.611 419.8C166.56 419.688 166.485 419.588 166.392 419.507L164.548 417.946C163.776 417.205 162.938 416.535 162.044 415.946L162.047 415.927ZM178.787 429.578L174.147 425.67L172.994 424.695C172.148 423.977 170.956 425.369 171.808 426.095L172.062 426.306C171.975 426.535 172.025 426.793 172.192 426.972C172.905 427.722 173.614 428.627 174.323 429.403C174.656 429.765 175.212 429.812 175.601 429.51C176.188 429.925 176.762 430.429 177.38 430.849L178.277 431.625C179.124 432.343 180.316 430.944 179.463 430.226L178.961 429.804L178.787 429.578ZM182.191 434.25L188.024 439.171C188.871 439.889 190.063 438.49 189.21 437.771L183.38 432.831C182.574 432.145 181.401 433.54 182.196 434.218L182.191 434.25ZM201.115 446.497C200.919 446.417 200.775 446.383 200.585 446.31C199.295 445.308 198.005 444.299 196.675 443.343C195.984 442.848 194.856 443.668 195.224 444.427C195.237 444.673 195.354 444.902 195.547 445.056L195.846 445.312C196.46 445.997 197.147 446.61 197.897 447.143C198.76 447.789 199.68 448.356 200.646 448.835C200.703 448.844 200.703 448.844 200.792 448.856L200.941 448.988C201.834 449.654 203.02 448.255 202.127 447.588L201.73 447.252C201.749 446.875 201.49 446.54 201.119 446.465L201.115 446.497ZM207.239 453.11L207.538 453.367C207.494 453.629 207.6 453.894 207.813 454.053C209.409 455.404 210.958 456.812 212.502 458.123C213.348 458.841 214.447 457.551 213.739 456.769C213.824 456.469 213.73 456.147 213.498 455.939L208.463 451.67C207.652 451.016 206.442 452.406 207.239 453.11ZM223.6 464.332C222.206 463.243 220.772 462.11 219.338 461.074C218.446 460.402 217.299 461.749 218.153 462.468L218.602 462.85C218.656 462.972 218.745 463.077 218.855 463.152L222.638 466.372C223.485 467.09 224.678 465.691 223.825 464.972L223.577 464.762C223.667 464.735 223.747 464.678 223.801 464.6C223.812 464.479 223.702 464.392 223.604 464.306L223.6 464.332ZM78.4817 354.355L78.3317 354.23C77.9505 354.062 77.5059 354.144 77.2087 354.436C76.5557 355.156 76.6109 356.27 77.3312 356.923C77.5451 357.116 77.8038 357.255 78.0834 357.325C78.2086 357.358 78.3411 357.345 78.4574 357.289C78.5934 357.337 78.7414 357.338 78.8775 357.291C79.7129 357.82 80.6281 356.549 79.9652 355.812C79.7176 355.602 79.5099 355.339 79.2632 355.122C79.0537 354.814 78.79 354.545 78.4854 354.33L78.4817 354.355ZM84.5463 360.843C84.4545 360.803 84.3544 360.788 84.2549 360.801C83.4309 360.461 82.4643 361.596 83.2586 362.274L88.2984 366.64C88.5268 366.862 88.8715 366.912 89.1536 366.764C89.614 366.997 90.1764 366.813 90.4094 366.352C90.5798 366.016 90.5317 365.611 90.2875 365.324L85.4379 360.94C85.1768 360.764 84.849 360.719 84.55 360.818L84.5463 360.843ZM93.8483 370.789L94.0959 371C94.0821 371.095 94.1996 371.176 94.2972 371.262L100.373 377.137C100.828 377.61 101.467 377.263 101.721 376.763C102.155 376.564 102.347 376.052 102.148 375.618C102.097 375.506 102.023 375.405 101.93 375.325L95.019 369.452C94.1914 368.646 93.0052 370.046 93.8519 370.764L93.8483 370.789ZM107.094 379.722C106.259 379.193 105.187 380.248 105.706 380.95C105.572 381.278 105.673 381.656 105.954 381.872L112.647 387.824C113.343 388.416 114.368 387.504 114.033 386.692C114.329 386.369 114.306 385.867 113.983 385.571C113.962 385.553 113.941 385.535 113.919 385.518L112.283 384.31C110.811 382.513 109.059 380.963 107.094 379.722ZM121.336 391.018C121.197 390.879 121.001 390.813 120.806 390.838L120.755 390.791C119.862 390.125 118.708 391.523 119.568 392.191L121.251 393.438C123.111 395.286 124.965 397.043 126.826 398.884C127.28 399.364 127.916 399.042 128.173 398.517C128.682 398.576 129.142 398.211 129.201 397.702C129.235 397.413 129.131 397.126 128.921 396.924L121.336 391.018ZM132.518 401.696C132.261 401.966 132.159 402.349 132.248 402.711C131.859 402.935 131.727 403.433 131.951 403.822C132.001 403.909 132.066 403.985 132.145 404.048C133.728 405.216 135.265 406.441 136.85 407.596C137.737 408.261 138.897 406.864 138.035 406.202L137.886 406.071C137.991 405.843 137.936 405.573 137.75 405.404L134.092 401.232C133.629 400.544 132.622 401.025 132.524 401.651L132.518 401.696ZM145.125 412.49L144.774 412.193C144.488 411.965 144.087 411.949 143.783 412.153C143.017 412.042 142.287 413.106 142.983 413.699C144.331 414.936 145.685 416.167 146.967 417.453C147.117 417.578 147.215 417.664 147.306 417.657C147.701 417.972 148.115 418.264 148.545 418.529L148.595 418.536L148.745 418.662C149.015 418.824 149.359 418.79 149.592 418.578L150.041 418.96C150.888 419.678 152.08 418.285 151.226 417.566C149.332 415.952 147.431 414.254 145.542 412.647C145.456 412.507 145.296 412.428 145.132 412.445L145.125 412.49ZM156.715 421.784L156.513 421.612C155.678 421.084 154.826 422.493 155.523 423.086L156.47 423.87C156.444 424.13 156.547 424.387 156.746 424.557L158.744 426.347C158.9 426.587 159.028 426.844 159.124 427.114C159.464 428.024 160.852 427.598 160.852 426.796C161.287 426.597 161.478 426.085 161.28 425.651C161.229 425.538 161.154 425.438 161.061 425.357L159.217 423.796C158.447 423.03 157.605 422.34 156.702 421.737L156.715 421.784ZM173.402 435.265L168.793 431.363L167.641 430.387C166.794 429.669 165.602 431.062 166.455 431.787L166.709 431.998C166.621 432.227 166.672 432.485 166.838 432.664C167.547 433.446 168.261 434.319 168.969 435.101C169.304 435.461 169.857 435.507 170.247 435.209C170.835 435.618 171.408 436.121 171.995 436.536L172.892 437.313C173.738 438.031 174.931 436.632 174.078 435.913L173.576 435.491L173.402 435.265ZM176.858 439.984L182.657 444.952C183.504 445.67 184.696 444.277 183.843 443.559L178.021 438.607C177.212 437.894 176.008 439.285 176.854 440.009L176.858 439.984ZM195.782 452.224C195.586 452.151 195.442 452.117 195.245 452.043C193.962 451.036 192.672 450.027 191.335 449.076C190.645 448.575 189.516 449.401 189.884 450.16C189.897 450.406 190.014 450.635 190.207 450.789L190.507 451.039C191.12 451.722 191.805 452.335 192.551 452.869C193.415 453.517 194.338 454.084 195.307 454.562C195.352 454.607 195.352 454.607 195.453 454.583L195.603 454.708C196.489 455.374 197.649 453.977 196.788 453.315L196.385 452.972C196.367 452.622 196.12 452.327 195.778 452.25L195.782 452.224ZM201.898 458.849L202.198 459.1C202.155 459.364 202.264 459.629 202.48 459.787C204.068 461.143 205.618 462.545 207.167 463.863C208.014 464.581 209.107 463.284 208.399 462.502C208.486 462.205 208.394 461.884 208.163 461.679L203.129 457.404C202.194 456.809 201.047 458.156 201.894 458.874L201.898 458.849ZM213.468 466.627C212.962 466.612 212.54 467.009 212.525 467.515C212.518 467.776 212.622 468.028 212.812 468.207L215.306 470.322C215.346 470.26 215.411 470.218 215.484 470.205L216.233 470.844C217.079 471.562 218.272 470.163 217.419 469.445L214.279 466.783C214.06 466.577 213.737 466.525 213.464 466.652L213.468 466.627ZM77.6773 367.797C77.5866 367.753 77.4852 367.739 77.3859 367.755C76.5628 367.409 75.5953 368.549 76.3969 369.222L81.4293 373.594C81.6597 373.812 82.0018 373.862 82.2846 373.718C82.7367 373.959 83.299 373.788 83.5405 373.336C83.7234 372.994 83.6742 372.575 83.4175 372.284L78.5688 367.894C78.3165 367.689 77.9676 367.651 77.6773 367.797ZM86.9268 377.703L87.1744 377.913C87.1606 378.008 87.2845 378.091 87.3821 378.176L93.458 384.051C93.9069 384.524 94.5413 384.208 94.8059 383.677C95.2402 383.479 95.4316 382.967 95.2333 382.532C95.1823 382.42 95.1075 382.32 95.0144 382.239L88.1039 376.366C87.3178 375.631 86.1325 377.025 86.9268 377.703ZM100.173 386.636C99.3373 386.107 98.2722 387.162 98.785 387.864C98.6526 388.192 98.7539 388.568 99.0329 388.786L105.725 394.738C106.422 395.33 107.453 394.419 107.118 393.607C107.413 393.288 107.394 392.79 107.074 392.495C107.05 392.472 107.024 392.451 106.997 392.432L105.368 391.225C103.846 389.472 102.1 387.929 100.173 386.636ZM114.427 398.024C114.288 397.886 114.092 397.819 113.897 397.844L113.84 397.836C112.954 397.164 111.794 398.567 112.655 399.229L114.336 400.482C116.197 402.324 118.058 404.081 119.918 405.929C120.367 406.402 121.006 406.055 121.266 405.556C121.771 405.62 122.232 405.263 122.297 404.758C122.334 404.465 122.228 404.171 122.013 403.969L114.427 398.024ZM125.606 408.591C125.35 408.863 125.251 409.246 125.342 409.608C124.953 409.824 124.813 410.316 125.029 410.705C125.081 410.797 125.15 410.878 125.232 410.944C126.816 412.111 128.352 413.337 129.938 414.492C130.831 415.158 131.984 413.76 131.123 413.098L130.974 412.967C131.077 412.74 131.026 412.472 130.844 412.301L127.19 408.149C126.814 407.78 126.21 407.786 125.841 408.162C125.724 408.281 125.641 408.429 125.599 408.591L125.606 408.591ZM138.213 419.385L137.889 419.118C137.601 418.891 137.199 418.875 136.893 419.077C136.133 418.967 135.396 420.031 136.093 420.624C137.446 421.862 138.794 423.092 140.076 424.378C140.226 424.503 140.33 424.589 140.422 424.583C140.814 424.899 141.225 425.19 141.654 425.454L141.706 425.494L141.856 425.619C142.124 425.783 142.468 425.748 142.697 425.534L143.146 425.916C143.993 426.634 145.184 425.241 144.331 424.522C142.437 422.909 140.542 421.211 138.647 419.604C138.517 419.5 138.368 419.425 138.207 419.384L138.213 419.385ZM149.802 428.68L149.607 428.509C148.772 427.98 147.914 429.389 148.611 429.982L149.564 430.767C149.532 431.028 149.636 431.287 149.84 431.454L151.838 433.244C151.992 433.485 152.12 433.742 152.218 434.011C152.558 434.92 153.946 434.494 153.94 433.691C154.374 433.493 154.566 432.981 154.367 432.546C154.316 432.434 154.241 432.334 154.148 432.253L152.305 430.692C151.53 429.939 150.683 429.264 149.777 428.676L149.802 428.68ZM166.499 442.233L161.89 438.331L160.737 437.355C159.891 436.637 158.698 438.036 159.551 438.755L159.799 438.965C159.724 439.196 159.776 439.449 159.935 439.632C160.648 440.382 161.357 441.287 162.065 442.069C162.398 442.432 162.954 442.479 163.344 442.177C163.931 442.586 164.537 443.094 165.13 443.51L166.02 444.286C166.867 445.004 168.059 443.605 167.206 442.886L166.711 442.465L166.499 442.233ZM169.908 447.004L175.737 451.95C176.583 452.668 177.775 451.275 176.922 450.557L171.094 445.604C170.222 444.882 169.037 446.276 169.882 447L169.908 447.004ZM188.878 459.193C188.682 459.119 188.538 459.085 188.348 459.012C187.059 458.004 185.768 457.001 184.438 456.045C183.748 455.544 182.619 456.37 182.987 457.129C182.999 457.375 183.117 457.604 183.31 457.758L183.609 458.014C184.225 458.695 184.913 459.306 185.66 459.838C186.522 460.487 187.443 461.054 188.41 461.531C188.461 461.577 188.461 461.577 188.556 461.552L188.706 461.677C189.599 462.344 190.784 460.95 189.891 460.284L189.494 459.942C189.458 459.582 189.202 459.282 188.853 459.189L188.878 459.193ZM194.951 465.895L195.251 466.145C195.205 466.408 195.312 466.674 195.526 466.832C197.121 468.189 198.671 469.591 200.214 470.908C201.06 471.626 202.16 470.33 201.452 469.548C201.54 469.25 201.445 468.927 201.21 468.724L196.158 464.44C195.268 463.748 194.082 465.148 194.929 465.866L194.951 465.895ZM208.335 474.764C208.179 473.122 206.744 471.904 205.098 472.018C204.615 472.054 204.253 472.475 204.29 472.958C204.298 473.066 204.326 473.173 204.373 473.271C204.287 473.593 204.403 473.936 204.667 474.141L204.712 474.187C204.734 474.21 204.732 474.247 204.709 474.268C204.706 474.271 204.703 474.273 204.7 474.275C204.859 474.77 205.286 475.13 205.8 475.205L205.898 475.29C205.995 475.376 206.048 475.415 206.139 475.409L206.791 475.957C206.942 475.89 207.078 475.796 207.193 475.679C207.615 475.718 208.008 475.466 208.149 475.067C208.189 475.014 208.328 474.95 208.374 474.899C208.42 474.847 208.411 474.82 208.314 474.735L208.335 474.764ZM72.3631 377.544C72.1223 377.487 71.8691 377.529 71.6604 377.662C71.265 377.948 71.1404 378.482 71.3689 378.914L71.4196 378.921C71.3972 379.182 71.5024 379.438 71.7015 379.609L71.9491 379.819L71.9028 379.871L73.5963 381.307C73.8248 381.529 74.1695 381.579 74.4516 381.431C74.912 381.664 75.4743 381.479 75.7074 381.019C75.8777 380.683 75.8297 380.278 75.5854 379.991C74.5373 379.011 73.4375 378.075 72.4355 377.134C72.3899 377.257 72.3584 377.385 72.3415 377.515L72.3631 377.544ZM79.177 385.467L79.431 385.678C79.4181 385.767 79.5347 385.855 79.6323 385.94L85.7081 391.815C86.1634 392.289 86.8024 391.941 87.0561 391.441C87.4904 391.243 87.6818 390.731 87.4834 390.296C87.4324 390.184 87.3577 390.084 87.2646 390.003L80.355 384.124C79.9923 383.792 79.4297 383.818 79.0983 384.181C78.7669 384.544 78.7926 385.106 79.1553 385.438L79.177 385.467ZM92.364 394.404C91.5287 393.875 90.4635 394.931 90.9763 395.632C90.842 395.96 90.9432 396.338 91.2242 396.554L97.9164 402.506C98.6132 403.099 99.6445 402.187 99.3103 401.369C99.6034 401.047 99.5805 400.55 99.2588 400.257C99.2365 400.237 99.2134 400.218 99.1888 400.2L97.6033 399.045C96.1134 397.231 94.345 395.664 92.364 394.404ZM106.606 405.7C106.468 405.56 106.273 405.491 106.077 405.513L106.02 405.505C105.133 404.84 103.973 406.237 104.835 406.899L106.516 408.152C108.376 410 110.231 411.75 112.091 413.598C112.546 414.072 113.185 413.725 113.438 413.231C113.947 413.29 114.408 412.924 114.467 412.415C114.5 412.127 114.397 411.839 114.187 411.638L106.606 405.7ZM117.739 416.313C117.487 416.588 117.387 416.971 117.474 417.335C117.088 417.55 116.95 418.037 117.165 418.423C117.217 418.517 117.287 418.6 117.372 418.666C118.949 419.832 120.486 421.058 122.07 422.219C122.963 422.886 124.118 421.481 123.257 420.819L123.107 420.694C123.214 420.468 123.162 420.197 122.977 420.028L119.32 415.85C118.899 415.271 117.932 415.694 117.736 416.332L117.739 416.313ZM130.398 427.153L130.046 426.856C129.761 426.628 129.36 426.612 129.056 426.816C128.296 426.706 127.559 427.77 128.256 428.362C129.611 429.594 130.958 430.83 132.24 432.116C132.39 432.241 132.487 432.327 132.585 432.321C132.976 432.637 133.388 432.926 133.818 433.186L133.863 433.231L134.013 433.357C134.283 433.519 134.627 433.485 134.86 433.272L135.309 433.654C136.156 434.372 137.348 432.98 136.495 432.255C134.6 430.647 132.699 428.948 130.81 427.342C130.719 427.206 130.555 427.139 130.395 427.172L130.398 427.153ZM141.917 436.398L141.721 436.234C140.886 435.699 140.028 437.114 140.724 437.706L141.678 438.492C141.65 438.752 141.753 439.01 141.953 439.178L143.952 440.962C144.105 441.204 144.232 441.461 144.333 441.729C144.673 442.639 146.06 442.219 146.053 441.416C146.488 441.218 146.679 440.705 146.481 440.271C146.43 440.159 146.355 440.059 146.262 439.978L144.418 438.417C143.691 437.626 142.846 436.951 141.914 436.417L141.917 436.398ZM158.636 450.013L154.027 446.111L152.829 445.096C151.983 444.372 150.791 445.771 151.644 446.49L151.891 446.7C151.814 446.931 151.866 447.185 152.028 447.367C152.736 448.149 153.45 449.022 154.158 449.804C154.491 450.167 155.047 450.214 155.436 449.912C156.023 450.327 156.628 450.835 157.222 451.244L158.112 452.02C158.959 452.738 160.151 451.346 159.298 450.627L158.803 450.199L158.636 450.013ZM162.04 454.686L167.868 459.639C168.715 460.357 169.908 458.958 169.055 458.239L163.226 453.292C162.405 452.572 161.219 453.972 162.066 454.69L162.04 454.686ZM180.964 466.933C180.775 466.853 180.631 466.82 180.435 466.746C179.145 465.737 177.854 464.735 176.524 463.779C175.833 463.284 174.705 464.104 175.074 464.862C175.082 465.109 175.201 465.34 175.396 465.491L175.689 465.747C176.303 466.432 176.99 467.045 177.74 467.578C178.603 468.224 179.523 468.79 180.489 469.27C180.541 469.31 180.541 469.31 180.635 469.291L180.784 469.423C181.677 470.089 182.863 468.689 181.97 468.023L181.572 467.687C181.577 467.331 181.335 467.019 180.989 466.936L180.964 466.933ZM187.087 473.552L187.386 473.809C187.342 474.071 187.449 474.337 187.662 474.495C189.258 475.846 190.806 477.254 192.35 478.565C193.197 479.283 194.296 477.993 193.588 477.211C193.672 476.911 193.578 476.589 193.346 476.381L188.318 472.113C187.452 471.438 186.266 472.838 187.112 473.556L187.087 473.552ZM71.8634 395.441L72.111 395.652C72.0972 395.747 72.2138 395.835 72.3187 395.915L78.3882 401.789C78.8435 402.263 79.4779 401.947 79.7361 401.415C80.1694 401.224 80.3652 400.717 80.1738 400.284C80.1217 400.166 80.0432 400.061 79.9447 399.977L73.0341 394.104C72.248 393.369 71.0627 394.763 71.8634 395.441ZM85.113 404.349C84.2776 403.82 83.2125 404.876 83.7252 405.577C83.591 405.905 83.6921 406.283 83.9731 406.5L90.6653 412.451C91.3621 413.044 92.3925 412.139 92.0583 411.32C92.3531 410.996 92.3289 410.494 92.0042 410.199C91.9831 410.18 91.9605 410.162 91.9377 410.145L90.3016 408.937C88.8309 407.138 87.0789 405.588 85.113 404.349ZM99.4066 415.692C99.2669 415.549 99.0693 415.48 98.8711 415.504L98.825 415.465C97.9319 414.798 96.7783 416.197 97.6397 416.858L99.3209 418.111C101.181 419.959 103.036 421.71 104.896 423.558C105.351 424.031 105.986 423.716 106.244 423.184C106.748 423.252 107.213 422.898 107.281 422.393C107.32 422.098 107.215 421.802 106.998 421.599L99.4066 415.692ZM110.54 426.304C110.284 426.575 110.185 426.958 110.276 427.32C109.887 427.537 109.747 428.028 109.963 428.417C110.015 428.509 110.084 428.59 110.166 428.656C111.75 429.824 113.286 431.049 114.872 432.204C115.758 432.87 116.918 431.472 116.057 430.811L115.907 430.685C116.012 430.457 115.957 430.187 115.771 430.019L112.119 425.847C111.736 425.486 111.132 425.505 110.771 425.889C110.655 426.012 110.573 426.164 110.536 426.329L110.54 426.304ZM123.147 437.098L122.795 436.801C122.508 436.577 122.109 436.561 121.805 436.761C121.045 436.651 120.308 437.715 121.005 438.307C122.359 439.545 123.706 440.782 124.989 442.061C125.138 442.193 125.236 442.272 125.334 442.266C125.726 442.582 126.137 442.873 126.566 443.137L126.617 443.145L126.767 443.27C127.036 443.432 127.381 443.398 127.613 443.186L128.063 443.568C128.909 444.286 130.101 442.893 129.248 442.174C127.353 440.567 125.453 438.862 123.564 437.255C123.46 437.136 123.297 437.085 123.143 437.123L123.147 437.098ZM134.736 446.392L134.535 446.221C133.699 445.692 132.848 447.101 133.545 447.694L134.492 448.478C134.466 448.74 134.572 448.998 134.774 449.166L136.772 450.957C136.926 451.196 137.052 451.453 137.146 451.722C137.486 452.632 138.874 452.206 138.874 451.404C139.305 451.216 139.501 450.714 139.313 450.283C139.261 450.163 139.182 450.056 139.081 449.972L137.238 448.411C136.463 447.665 135.617 446.997 134.713 446.415L134.736 446.392ZM151.432 459.946L146.824 456.043L145.671 455.068C144.825 454.35 143.632 455.749 144.485 456.467L144.733 456.678C144.654 456.907 144.703 457.161 144.863 457.344C145.575 458.094 146.291 459 146.999 459.782C147.332 460.144 147.888 460.191 148.277 459.889C148.865 460.298 149.471 460.806 150.057 461.221L150.954 461.998C151.8 462.716 152.993 461.317 152.14 460.598L151.645 460.177L151.432 459.946ZM154.888 464.665L160.692 469.646C161.539 470.364 162.731 468.972 161.878 468.253L156.064 463.289C155.158 462.621 154.025 463.97 154.865 464.687L154.888 464.665ZM173.812 476.905C173.616 476.831 173.472 476.797 173.282 476.725C171.992 475.716 170.702 474.714 169.366 473.757C168.675 473.256 167.553 474.082 167.915 474.84C167.927 475.086 168.044 475.316 168.238 475.469L168.537 475.726C169.152 476.406 169.84 477.018 170.588 477.55C171.45 478.198 172.37 478.765 173.337 479.242C173.389 479.289 173.389 479.289 173.483 479.264L173.633 479.389C174.519 480.061 175.68 478.657 174.819 477.995L174.421 477.66C174.407 477.298 174.145 476.994 173.79 476.928L173.812 476.905ZM181.075 482.182C180.919 482.032 180.709 481.95 180.493 481.956L180.095 481.62C179.248 480.902 178.057 482.294 178.909 483.02L180.211 484.121C180.263 484.272 180.353 484.407 180.471 484.514L180.92 484.896C180.967 484.845 181.009 484.909 181.058 484.838L181.807 485.471C182.602 486.149 183.616 485.086 183.149 484.294C183.237 484.307 183.379 484.224 183.47 484.218L181.075 482.182ZM71.4971 404.658C71.4456 404.612 71.3933 404.481 71.3418 404.435C70.6736 403.6 69.3146 404.497 69.7927 405.349C69.568 405.689 69.6162 406.141 69.9081 406.426C69.7757 406.754 69.8771 407.131 70.156 407.348L72.3447 409.205C72.9954 409.759 73.8479 409.055 73.8077 408.395C74.1585 408.077 74.1854 407.535 73.8669 407.184C73.8385 407.153 73.8084 407.124 73.776 407.097L72.6229 406.128C72.6405 406.002 72.6327 405.872 72.6002 405.749C72.501 405.188 72.0586 404.751 71.4971 404.658ZM78.8896 411.668C78.0551 411.133 76.99 412.188 77.5027 412.89C77.3704 413.218 77.4717 413.595 77.7506 413.812L84.4428 419.764C85.1396 420.356 86.17 419.451 85.8358 418.633C86.1295 418.317 86.1112 417.823 85.7947 417.529C85.7697 417.506 85.7424 417.484 85.7143 417.464L84.0855 416.251C82.5966 414.479 80.8546 412.936 78.9149 411.672L78.8896 411.668ZM93.2123 422.989C93.0741 422.849 92.8791 422.78 92.683 422.802L92.6306 422.762C91.7376 422.096 90.5839 423.494 91.4453 424.156L93.1265 425.409C94.9867 427.257 96.8416 429.007 98.7018 430.855C99.157 431.329 99.796 430.982 100.05 430.481C100.555 430.546 101.017 430.188 101.081 429.683C101.118 429.391 101.012 429.097 100.797 428.895L93.2123 422.989ZM104.345 433.601C104.089 433.875 103.99 434.26 104.08 434.624C103.693 434.837 103.553 435.323 103.766 435.711C103.817 435.805 103.888 435.887 103.972 435.953C105.555 437.121 107.092 438.347 108.677 439.501C109.569 440.174 110.756 438.774 109.863 438.108L109.713 437.983C109.814 437.756 109.762 437.489 109.583 437.317L105.925 433.145C105.541 432.783 104.938 432.801 104.576 433.185C104.462 433.306 104.381 433.457 104.342 433.62L104.345 433.601ZM116.95 444.414L116.605 444.118C116.315 443.895 115.915 443.879 115.608 444.077C114.848 443.967 114.111 445.031 114.808 445.624C116.161 446.861 117.509 448.098 118.791 449.377C118.941 449.509 119.038 449.594 119.137 449.583C119.529 449.898 119.94 450.19 120.369 450.454L120.426 450.462L120.576 450.587C120.843 450.753 121.188 450.718 121.416 450.502L121.865 450.884C122.712 451.602 123.904 450.209 123.051 449.491C121.156 447.883 119.262 446.179 117.367 444.572C117.269 444.444 117.107 444.383 116.95 444.414ZM128.539 453.708L128.343 453.544C127.508 453.009 126.651 454.418 127.348 455.01L128.295 455.795C128.272 456.056 128.377 456.312 128.577 456.482L130.575 458.267C130.729 458.507 130.854 458.764 130.949 459.032C131.29 459.942 132.683 459.523 132.678 458.714C133.109 458.519 133.302 458.011 133.107 457.579C133.056 457.465 132.98 457.364 132.885 457.282L131.042 455.721C130.265 454.972 129.421 454.298 128.52 453.706L128.539 453.708ZM145.234 467.269L140.625 463.366L139.472 462.397C138.626 461.672 137.434 463.071 138.287 463.79L138.535 464.001C138.456 464.23 138.505 464.483 138.664 464.666C139.379 465.449 140.093 466.323 140.801 467.104C141.134 467.467 141.69 467.514 142.079 467.212C142.666 467.627 143.272 468.135 143.859 468.544L144.756 469.321C145.602 470.039 146.794 468.646 145.942 467.921L145.447 467.5L145.234 467.269ZM148.645 472.032L154.473 476.979C155.319 477.703 156.512 476.304 155.659 475.585L149.821 470.657C148.969 469.887 147.785 471.313 148.626 472.03L148.645 472.032ZM167.594 484.231C167.398 484.158 167.254 484.124 167.064 484.051C165.774 483.042 164.484 482.04 163.154 481.084C162.463 480.589 161.335 481.409 161.703 482.167C161.715 482.414 161.833 482.643 162.026 482.796L162.325 483.053C162.939 483.738 163.626 484.351 164.375 484.884C165.237 485.533 166.158 486.099 167.125 486.576C167.176 486.622 167.176 486.622 167.271 486.597L167.42 486.729C168.313 487.395 169.499 485.995 168.606 485.329L168.208 484.993C168.179 484.637 167.936 484.335 167.594 484.231ZM72.9073 422.677C72.6669 422.519 72.3616 422.497 72.1008 422.618C72.2625 423.644 72.4587 424.611 72.6142 425.545C74.5669 427.29 76.5133 429.035 78.5059 430.727C79.2027 431.32 80.2331 430.415 79.8989 429.597C80.1938 429.272 80.1695 428.77 79.8448 428.476C79.8237 428.456 79.8011 428.438 79.7783 428.421L78.1422 427.214C76.5806 425.502 74.8233 423.979 72.9073 422.677ZM87.1547 434.071C87.0166 433.93 86.8215 433.861 86.6255 433.884L86.5794 433.845C85.6863 433.179 84.5327 434.577 85.3941 435.239L87.0753 436.492C88.9355 438.34 90.7904 440.09 92.6505 441.938C93.1058 442.412 93.7339 442.095 93.9984 441.564C94.5034 441.628 94.9653 441.271 95.0295 440.766C95.0668 440.473 94.9612 440.18 94.746 439.978L87.1547 434.071ZM98.3339 444.632C98.0821 444.905 97.9828 445.287 98.0701 445.648C97.682 445.866 97.544 446.358 97.7627 446.746C97.8146 446.839 97.8837 446.92 97.9668 446.985C99.5441 448.151 101.081 449.377 102.666 450.532C103.559 451.198 104.713 449.8 103.851 449.138L103.701 449.013C103.803 448.786 103.751 448.52 103.571 448.347L99.9138 444.175C99.5519 443.807 98.9601 443.802 98.5919 444.164C98.4622 444.291 98.3727 444.454 98.3339 444.632ZM110.941 455.426L110.596 455.13C110.306 454.907 109.907 454.89 109.599 455.089C108.839 454.978 108.103 456.042 108.799 456.635C110.153 457.873 111.506 459.111 112.783 460.389C112.932 460.52 113.037 460.6 113.128 460.594C113.521 460.91 113.932 461.201 114.36 461.465L114.417 461.473L114.568 461.599C114.835 461.762 115.179 461.727 115.408 461.513L115.857 461.896C116.704 462.613 117.895 461.221 117.042 460.502C115.147 458.895 113.253 457.19 111.358 455.583C111.231 455.504 111.089 455.451 110.941 455.426ZM122.53 464.72L122.335 464.549C121.5 464.021 120.642 465.429 121.339 466.022L122.292 466.807C122.26 467.068 122.365 467.327 122.568 467.494L124.566 469.284C124.72 469.525 124.848 469.783 124.946 470.051C125.287 470.961 126.674 470.535 126.668 469.732C127.1 469.537 127.293 469.029 127.098 468.597C127.046 468.483 126.971 468.381 126.876 468.3L125.032 466.739C124.259 465.985 123.416 465.308 122.511 464.717L122.53 464.72ZM139.227 478.274L134.618 474.371L133.466 473.395C132.619 472.677 131.426 474.076 132.279 474.795L132.527 475.006C132.451 475.237 132.503 475.49 132.663 475.672C133.371 476.454 134.086 477.328 134.794 478.109C135.127 478.472 135.683 478.519 136.072 478.217C136.659 478.626 137.265 479.134 137.858 479.55L138.748 480.326C139.595 481.044 140.787 479.645 139.934 478.926L139.439 478.505L139.227 478.274ZM142.636 483.044L148.465 487.99C149.312 488.708 150.503 487.316 149.65 486.597L143.822 481.644C142.956 480.923 141.77 482.323 142.617 483.041L142.636 483.044ZM80.3922 442.03C80.2525 441.891 80.0571 441.825 79.862 441.849L79.805 441.841C78.9192 441.169 77.7583 442.573 78.6197 443.235L80.301 444.487C82.1683 446.33 84.0224 448.087 85.8825 449.935C86.3314 450.408 86.9658 450.092 87.2304 449.561C87.7354 449.625 88.1973 449.268 88.2615 448.763C88.2988 448.47 88.1932 448.177 87.978 447.975L80.3922 442.03ZM91.5242 452.648C91.2724 452.922 91.1731 453.303 91.2604 453.665C90.8722 453.883 90.7343 454.375 90.9529 454.763C91.0049 454.855 91.074 454.936 91.157 455.001C92.7407 456.169 94.2771 457.395 95.8563 458.549C96.7494 459.215 97.903 457.817 97.0416 457.155L96.8925 457.024C97.0048 456.798 96.9519 456.525 96.7627 456.358L93.105 452.186C92.7431 451.817 92.1512 451.813 91.783 452.175C91.6517 452.304 91.5619 452.468 91.5242 452.648ZM104.138 463.443L103.786 463.146C103.5 462.919 103.1 462.903 102.796 463.106C102.029 462.995 101.299 464.06 101.996 464.653C103.343 465.89 104.698 467.121 105.98 468.407C106.13 468.532 106.227 468.617 106.319 468.611C106.712 468.925 107.123 469.217 107.551 469.482L107.603 469.522L107.753 469.647C108.023 469.81 108.367 469.775 108.6 469.563L109.043 469.944C109.889 470.662 111.081 469.269 110.228 468.55C108.34 466.938 106.439 465.239 104.544 463.631C104.457 463.495 104.298 463.422 104.138 463.443ZM115.727 472.737L115.526 472.566C114.69 472.037 113.839 473.447 114.536 474.04L115.483 474.824C115.455 475.084 115.558 475.342 115.758 475.511L117.756 477.301C117.913 477.54 118.041 477.798 118.137 478.068C118.477 478.977 119.865 478.551 119.865 477.749C120.299 477.551 120.49 477.038 120.292 476.604C120.241 476.492 120.166 476.392 120.073 476.311L118.23 474.75C117.456 473.999 116.611 473.324 115.708 472.735L115.727 472.737ZM127.77 482.337L126.618 481.361C125.771 480.643 124.579 482.042 125.432 482.761L125.686 482.973C125.604 483.166 125.655 483.389 125.812 483.528C126.986 484.353 128.126 485.233 129.233 486.165C129.775 486.535 130.269 486.962 130.811 487.325C131.667 487.449 132.484 487.568 133.293 487.744C133.427 487.416 133.326 487.038 133.045 486.821L132.544 486.399L132.401 486.269L127.77 482.337ZM99.575 307.082C99.0545 307 98.5663 307.356 98.4843 307.876C98.4387 308.169 98.5313 308.467 98.735 308.681C98.8787 308.805 98.9879 308.989 99.1379 309.115C99.1414 309.34 99.2398 309.554 99.4082 309.704L100.503 310.632C100.988 311.135 101.523 311.587 102.099 311.983L102.196 312.068C102.45 312.28 102.651 312.548 102.904 312.759C103.706 313.522 104.845 312.181 104.091 311.36C102.875 310.064 101.568 308.775 100.352 307.48L100.307 307.434C100.124 307.218 99.8578 307.09 99.575 307.082ZM154.894 482.422C154.613 482.113 154.136 482.089 153.827 482.37C153.787 482.406 153.751 482.447 153.719 482.491C153.213 482.331 152.675 482.612 152.515 483.118C152.44 483.356 152.461 483.615 152.573 483.838C153.81 485.498 155.494 486.772 157.429 487.511C157.967 487.63 158.5 487.29 158.619 486.752C158.696 486.406 158.583 486.045 158.323 485.804C157.203 484.742 156.045 483.585 154.894 482.422ZM195.772 474.954C196.911 476.018 198.042 477.139 199.181 478.204C199.983 478.967 201.167 477.58 200.367 476.81C199.227 475.746 198.096 474.625 196.957 473.56C196.164 472.785 194.977 474.185 195.772 474.954ZM167.553 464.354C166.661 463.681 165.475 465.081 166.368 465.747C167.905 466.966 169.482 468.139 171.021 469.346C171.908 470.011 173.068 468.614 172.206 467.952C170.648 466.698 169.157 465.518 167.553 464.354ZM178.847 474.569C180.448 476.017 182.003 477.517 183.604 478.966C184.412 479.73 185.598 478.336 184.791 477.566C183.19 476.117 181.635 474.618 180.034 473.169C179.206 472.364 178.021 473.757 178.873 474.573L178.847 474.569ZM120.193 428.383C121.99 430.002 123.792 431.712 125.595 433.332C126.396 434.095 127.581 432.702 126.781 431.932C124.978 430.313 123.176 428.602 121.379 426.99C120.527 426.174 119.34 427.574 120.193 428.383ZM107.899 448.212L112.581 452.19C113.428 452.908 114.621 451.509 113.768 450.79L109.085 446.812C108.192 446.146 107.052 447.494 107.899 448.212ZM156.451 390.638C155.513 390.017 154.327 391.417 155.266 392.032C157.238 393.363 158.944 395.052 160.294 397.011C160.961 397.942 162.453 396.891 161.785 395.966C160.36 393.868 158.55 392.06 156.451 390.638ZM84.0193 424.825C83.1262 424.159 81.9808 425.5 82.8339 426.219L87.8961 430.252C88.7883 430.925 89.9345 429.577 89.0814 428.858L84.0193 424.825ZM137.818 362.831C138.569 363.587 139.333 364.384 140.077 365.099C140.836 365.928 142.022 364.528 141.262 363.706C140.501 362.884 139.753 362.155 139.003 361.438C138.253 360.721 137.062 361.978 137.818 362.831ZM208.032 421.639L211.373 424.471C212.219 425.189 213.411 423.797 212.558 423.078L209.218 420.239C208.331 419.573 207.204 420.923 208.032 421.639ZM198.845 439.712L194.218 436.602C193.279 435.987 192.093 437.381 193.032 438.002L197.662 441.132C198.562 441.799 199.751 440.38 198.861 439.734L198.845 439.712Z" fill="white"/>
<path d="M432.84 149.315C432.861 149.32 432.877 149.32 432.898 149.32L432.893 149.325L432.84 149.315Z" fill="black"/>
<path d="M422.576 87.3168C422.191 86.5504 421.867 85.7546 421.608 84.9366C420.203 77.9625 418.839 70.9726 417.458 63.9985C415.586 54.5173 413.864 45.0043 411.769 35.5706C410.556 30.1199 408.747 24.7961 407.207 19.4089C407.057 19.0463 406.973 18.6591 406.961 18.2663C407.239 16.3304 407.58 14.4104 407.985 11.9587C410.952 12.3475 413.713 10.2688 417.22 10.8718C420.338 11.4113 423.647 10.8162 426.868 10.8004C432.033 10.8004 432.192 11.0146 431.549 15.9813C430.161 26.8987 428.582 37.8001 427.511 48.7571C426.67 57.3101 426.4 65.9186 426.035 74.5112C425.924 77.1771 426.368 79.8588 426.511 82.5405C426.686 85.7221 426.408 86.0633 422.576 87.3168Z" fill="white"/>
<path d="M441.181 22.757C442.351 22.7308 443.52 22.8237 444.672 23.0347C450.289 24.7961 456.089 26.2084 461.405 28.6362C464.79 30.2881 467.722 32.7389 469.95 35.7769C474.71 42.2353 478.812 49.1776 483.168 55.9374C484.041 57.2862 484.842 58.6747 485.619 60.0711C486.659 61.9198 486.294 63.0385 484.366 63.8953C476.535 67.3784 468.902 71.4407 460.81 74.1462C451.9 77.1295 444.291 82.3263 436.119 86.5551C433.651 87.8325 431.255 89.0861 428.7 85.9204C429.446 82.358 430.287 78.4544 431.08 74.5429C432.469 67.6006 433.778 60.6344 435.198 53.7C435.992 49.6219 436.785 45.52 437.999 41.545C438.705 39.2044 437.436 36.9115 437.999 34.9835C438.562 33.0555 440.379 31.2227 440.641 28.898C440.887 26.9542 441.006 24.9944 441.181 22.757ZM473.512 64.9903L474.028 65.4584L481.803 59.4205C481.756 59.008 481.803 58.6827 481.684 58.4843C477.106 51.2246 472.766 43.7824 467.807 36.7766C465.568 33.5601 462.304 31.1989 458.548 30.0802L451.947 34.9438L451.368 34.2297L456.66 28.7949C452.693 27.7952 449.519 26.8114 446.25 26.2242C443.87 25.7958 443.664 26.2242 443.434 29.1836L447.782 27.4937C446.425 31.4608 440.831 31.6908 441.855 36.8797C443.251 35.6738 444.37 34.5789 445.616 33.6505C446.822 32.7937 448.073 31.9995 449.361 31.2703C450.567 30.5404 451.796 29.8422 453.018 29.136C449.929 32.1692 446.623 34.9716 443.124 37.5224C441.085 39.0616 438.824 41.4894 439.768 43.4095C440.712 45.3295 439.586 45.9087 439.213 47.0751C439.162 47.6043 439.181 48.1374 439.268 48.6619C440.332 47.8685 441.157 47.329 441.926 46.7022C445.981 43.3857 449.995 40.0137 454.089 36.7528C455.215 35.9903 456.401 35.3223 457.636 34.7534L458.128 35.5468C456.676 36.6893 455.216 37.816 453.788 38.9743C449.099 42.7907 444.394 46.5752 439.784 50.4788C438.499 51.5658 437.118 52.859 437.856 55.1996C446.108 49.5743 452.503 41.8068 461.405 37.3161C458.935 39.8185 456.327 42.1789 453.589 44.3854C450.892 46.6625 448.234 48.9951 445.56 51.3119L446.092 51.9783C448.028 50.4709 449.987 48.9872 451.9 47.448C453.812 45.9087 455.517 44.2108 457.453 42.8462C459.389 41.4815 460.738 39.1251 464.189 38.5062C463.456 40.1192 462.285 41.4934 460.81 42.4733C453.883 48.0271 446.988 53.581 440.046 59.1349C438.176 60.7185 436.841 62.8409 436.222 65.2124C446.671 57.5719 455.994 48.6381 466.871 41.6323C466.871 43.4968 465.403 44.068 464.348 44.9249C456.85 51.0342 449.273 57.0324 441.831 63.2289C439.832 64.895 438.61 67.5926 436.484 68.989C433.659 70.8298 433.96 73.1069 433.968 75.8917C434.471 75.7552 434.955 75.5521 435.405 75.2887C444.126 67.7458 452.838 60.1878 461.539 52.613C463.872 50.5899 466.197 48.5508 468.577 46.5752C469.561 45.7818 470.632 45.2423 471.441 47.1941L469.553 48.6381C457.096 58.2145 444.957 68.156 433.849 79.2637C431.937 81.1679 431.787 83.2308 431.85 86.0236C435.682 82.5008 439.086 79.343 442.506 76.2011C445.925 73.0593 449.194 69.9888 452.606 66.9579C456.017 63.9271 459.746 60.8249 463.277 57.7702C466.697 54.8426 469.997 51.7324 474.25 49.9869C470.354 53.7318 466.197 57.1276 462.135 60.6265C458.072 64.1254 454.05 67.7116 450.043 71.2979C446.171 74.7651 442.109 78.0815 438.935 82.2707C441.319 81.3504 443.558 80.092 445.584 78.5338C449.226 75.5902 452.622 72.3372 456.216 69.3302C460.024 66.1566 463.92 63.0623 467.823 59.9918C468.418 59.6506 469.059 59.3991 469.727 59.246C467.347 62.1895 464.562 64.4507 461.896 66.8706C459.231 69.2905 455.859 70.8377 453.962 74.0669C454.934 74.0661 455.879 73.7606 456.668 73.1941C460.413 69.9356 464.116 66.6271 467.776 63.2686C470.949 60.3409 474.448 58.2463 479.566 58.7937L473.512 64.9903ZM462.698 70.4093C465.007 69.8856 465.007 69.8856 465.499 67.9417L462.698 70.4093Z" fill="white"/>
<path d="M490.602 78.0586L487.151 78.7329C484.604 79.3756 481.978 79.7644 479.28 81.256C475.591 83.3109 471.291 84.3106 467.197 85.5801C462.349 87.0796 457.414 88.2856 452.574 89.809C446.695 91.6576 440.84 93.5935 435.048 95.704C432.295 96.7116 429.732 98.2032 427.114 99.4489C426.32 99.8297 425.455 100.107 424.527 100.464C423.48 98.5841 423.988 97.7748 425.654 96.8862C430.803 94.1568 436.381 92.7128 441.879 91.007C448.932 88.8251 455.962 86.5877 462.992 84.3424C466.959 83.0808 470.926 81.8352 474.821 80.4308C477.59 79.4391 480.232 78.122 482.994 77.0985C484.612 76.5273 486.278 76.0988 487.976 75.8211C489.619 75.5276 490.356 76.4241 490.602 78.0586Z" fill="white"/>
<path d="M436.309 158.97C435.825 159.509 435.436 160.358 434.841 160.557C424.527 163.865 414.3 164.286 404.398 158.89C397.21 154.971 389.91 151.194 382.77 147.323C374.32 142.792 368.33 135.882 363.561 127.701C359.198 120.22 355.675 112.412 354.183 103.844C352.541 94.3941 353.168 85.1191 356.984 76.1933C357.471 75.234 357.857 74.2256 358.134 73.1862C359.761 64.7126 364.878 57.9369 369.417 51.1136C373.122 45.5597 377.859 40.3073 384.079 36.9591C385.967 35.9515 387.681 34.5789 389.522 33.5316C390.744 32.8096 392.021 32.0558 393.703 32.4922C393.703 34.6979 391.886 35.1581 390.648 35.9594C387.832 37.7763 384.793 39.26 382.048 41.1801C377.2 44.5711 373.121 48.9452 370.075 54.0174C365.964 60.6194 362.435 67.5665 359.531 74.781C356.526 82.4096 355.109 90.5707 355.365 98.7658C355.627 106.509 358.071 113.841 361.57 120.688C363.641 124.742 366.283 128.503 368.711 132.367C371.841 137.409 376.295 141.495 381.588 144.181C384.317 145.577 386.776 147.489 389.395 149.108C392.235 150.845 394.949 152.734 398.455 153.225C400.716 153.666 402.801 154.749 404.462 156.344C407.596 159.255 411.523 159.359 415.252 160.152C421.123 161.398 426.994 160.874 432.826 159.62C434.008 159.366 435.206 159.216 436.396 159.017L436.309 158.97Z" fill="white"/>
<path d="M493.522 100.948C493.371 102.147 493.292 103.352 493.284 104.566C492.403 117.61 487.73 129.107 478.931 138.778C477.407 140.444 476.059 142.801 473.155 142.396C474.472 140.913 475.733 139.397 477.114 137.969C485.119 129.598 489.436 119.459 490.832 108.121C491.403 102.377 491.61 96.6085 491.435 90.8404C491.538 87.8492 490.475 84.9295 488.476 82.7C487.682 81.859 487.682 80.3198 487.151 78.733L490.602 78.0586C490.8 79.8993 491.181 81.7241 491.744 83.4934C493.752 89.1742 494.617 94.9265 493.522 100.948Z" fill="white"/>
<path d="M396.749 28.7791C397.542 29.9136 398.582 30.953 399.026 32.2145C400.518 36.3641 401.97 40.5453 403.105 44.806C406.096 56.0882 409.523 67.196 414.545 77.788C416.259 81.406 417.298 85.3413 418.75 89.0862C419.544 91.0776 420.449 92.9977 421.401 94.9098C421.996 96.092 421.829 97.1631 420.663 97.5439C420.163 97.7106 418.878 96.9171 418.648 96.2983C417.164 92.2836 415.895 88.1896 414.514 84.1353C413.964 82.3446 413.314 80.5864 412.57 78.8671C407.92 68.8542 404.802 58.3653 401.993 47.7019C400.692 42.7907 398.82 38.0302 397.233 33.2142C396.789 31.8892 396.297 30.5801 395.829 29.2472L396.749 28.7791Z" fill="white"/>
<path d="M469.251 144.506C469.251 144.974 469.355 145.712 469.109 145.871C467.521 146.951 465.776 147.781 463.936 148.33L469.323 144.506H469.251Z" fill="white"/>
<path d="M450.385 154.423L453.305 152.837L453.59 153.63L450.306 154.289L450.385 154.423Z" fill="white"/>
<path d="M469.34 144.506L473.148 142.403L473.069 142.316C472.545 144.292 470.982 144.49 469.292 144.506H469.34Z" fill="white"/>
<path d="M449.813 36.7925L443.672 42.4336C444.252 38.9585 447.639 38.5618 449.091 36.0149L449.813 36.7925Z" fill="white"/>
<path d="M120.009 174.856H477.205C484.991 174.856 491.304 181.168 491.304 188.954V407.39C491.304 415.176 484.991 421.488 477.205 421.488H120.009C112.223 421.488 105.911 415.176 105.911 407.39V188.954C105.911 181.168 112.223 174.856 120.009 174.856Z" fill="white"/>
<path d="M154.181 269.235C157.466 269.235 160.129 271.898 160.129 275.183C160.129 278.468 157.466 281.131 154.181 281.131C150.896 281.131 148.233 278.468 148.233 275.183C148.233 271.898 150.896 269.235 154.181 269.235Z" fill="#FFC111"/>
<path d="M178.357 269.83H240.736C242.886 269.83 244.629 271.573 244.629 273.724V276.642C244.629 278.792 242.886 280.536 240.736 280.536H178.357C176.207 280.536 174.464 278.792 174.464 276.642V273.724C174.464 271.573 176.207 269.83 178.357 269.83Z" fill="#CCCCCC"/>
<path d="M154.181 299.202C157.466 299.202 160.129 301.865 160.129 305.15C160.129 308.435 157.466 311.098 154.181 311.098C150.896 311.098 148.233 308.435 148.233 305.15C148.233 301.865 150.896 299.202 154.181 299.202Z" fill="#FF7832"/>
<path d="M178.357 299.802H240.736C242.886 299.802 244.629 301.546 244.629 303.696V306.614C244.629 308.764 242.886 310.508 240.736 310.508H178.357C176.207 310.508 174.464 308.764 174.464 306.614V303.696C174.464 301.546 176.207 299.802 178.357 299.802Z" fill="#CCCCCC"/>
<path d="M154.181 329.174C157.466 329.174 160.129 331.837 160.129 335.122C160.129 338.407 157.466 341.07 154.181 341.07C150.896 341.07 148.233 338.407 148.233 335.122C148.233 331.837 150.896 329.174 154.181 329.174Z" fill="#235EE8"/>
<path d="M178.357 329.769H240.736C242.886 329.769 244.629 331.513 244.629 333.663V336.581C244.629 338.731 242.886 340.475 240.736 340.475H178.357C176.207 340.475 174.464 338.731 174.464 336.581V333.663C174.464 331.513 176.207 329.769 178.357 329.769Z" fill="#CCCCCC"/>
<path d="M154.181 359.146C157.466 359.146 160.129 361.809 160.129 365.094C160.129 368.379 157.466 371.042 154.181 371.042C150.896 371.042 148.233 368.379 148.233 365.094C148.233 361.809 150.896 359.146 154.181 359.146Z" fill="#00BE82"/>
<path d="M178.357 359.742H240.736C242.886 359.742 244.629 361.485 244.629 363.635V366.554C244.629 368.704 242.886 370.447 240.736 370.447H178.357C176.207 370.447 174.464 368.704 174.464 366.554V363.635C174.464 361.485 176.207 359.742 178.357 359.742Z" fill="#CCCCCC"/>
<path d="M146.541 223.605H150.149L158.5 236.138H158.553V223.605H162.188V242.181H158.5L150.255 229.911H150.202V242.181H146.514L146.541 223.605Z" fill="#4D4D4D"/>
<path d="M177.757 236.897H168.8C169.182 238.426 170.605 239.463 172.177 239.357C173.384 239.397 174.539 238.864 175.291 237.919L177.514 239.984C176.461 241.37 174.791 242.418 171.94 242.418C168.015 242.418 165.244 239.784 165.244 235.77C165.244 231.871 167.936 229.205 171.73 229.205C175.344 229.205 177.857 231.924 177.857 235.669C177.836 236.086 177.783 236.686 177.757 236.897ZM168.8 234.437H174.427C174.204 233.104 173.028 232.142 171.677 232.187C170.302 232.144 169.093 233.091 168.806 234.437H168.8Z" fill="#4D4D4D"/>
<path d="M192.329 236.897H183.373C183.756 238.425 185.178 239.461 186.75 239.357C187.957 239.397 189.111 238.864 189.863 237.919L192.066 239.984C191.012 241.37 189.347 242.418 186.492 242.418C182.567 242.418 179.795 239.784 179.795 235.77C179.795 231.871 182.488 229.205 186.281 229.205C189.895 229.205 192.408 231.924 192.408 235.669C192.408 236.086 192.355 236.686 192.329 236.897ZM183.373 234.437H189.01C188.789 233.103 187.612 232.14 186.26 232.187C184.882 232.141 183.668 233.088 183.378 234.437H183.373Z" fill="#4D4D4D"/>
<path d="M194.342 235.822C194.342 231.95 196.976 229.205 200.385 229.205C201.861 229.158 203.281 229.772 204.257 230.88H204.31V222.925H207.713V242.181H204.441V240.601H204.415C203.468 241.807 201.996 242.48 200.464 242.408C196.913 242.418 194.342 239.774 194.342 235.822ZM204.441 235.822C204.441 233.757 203.056 232.24 201.091 232.24C199.263 232.24 197.819 233.625 197.819 235.822C197.819 237.866 199.184 239.305 201.091 239.305C202.909 239.339 204.411 237.893 204.445 236.075C204.447 235.999 204.445 235.924 204.441 235.849V235.822Z" fill="#4D4D4D"/>
<path d="M210.085 240.511L211.734 238.13C212.675 239.079 213.959 239.608 215.295 239.6C216.291 239.6 216.839 239.178 216.839 238.546C216.839 237.914 216.186 237.708 214.537 237.16C212.429 236.454 210.585 235.459 210.585 232.972C210.585 230.67 212.572 229.179 215.216 229.179C216.907 229.141 218.556 229.701 219.874 230.759L218.198 233.299C217.39 232.469 216.295 231.98 215.137 231.934C214.611 231.934 213.936 232.198 213.936 232.877C213.936 233.404 214.563 233.768 215.817 234.236C218.594 235.259 220.216 235.859 220.216 238.399C220.216 240.648 218.636 242.376 215.269 242.376C213.37 242.413 211.525 241.749 210.085 240.511Z" fill="#4D4D4D"/>
<path d="M304.585 247.753C320.238 226.979 344.279 216.217 368.466 216.621" stroke="#FFC111" stroke-width="15.7421"/>
<path d="M288.836 293.499C289.135 276.317 294.963 260.518 304.592 247.768" stroke="#00BE82" stroke-width="15.7421"/>
<path d="M429.609 341.99C403.62 376.48 354.504 383.371 319.998 357.368C299.219 341.709 288.446 317.668 288.839 293.487" stroke="#235EE8" stroke-width="15.7421"/>
<path d="M367.098 216.592C410.297 216.592 445.371 251.667 445.371 294.866C445.371 312.58 439.474 328.927 429.537 342.051" stroke="#FF7832" stroke-width="15.7421"/>
<path d="M366.887 305.05H356.745L362.108 299.397C363.578 297.784 364.616 296.373 365.217 295.166C365.822 293.954 366.128 292.769 366.128 291.599C366.128 289.471 365.454 287.822 364.11 286.658C362.762 285.488 360.875 284.908 358.447 284.908C356.856 284.908 355.433 285.246 354.184 285.92C352.931 286.594 351.961 287.527 351.271 288.712C350.586 289.903 350.244 291.215 350.244 292.653H354.943C354.943 291.462 355.249 290.503 355.86 289.776C356.471 289.049 357.303 288.681 358.362 288.681C359.348 288.681 360.101 288.981 360.633 289.582C361.16 290.182 361.429 291.004 361.429 292.052C361.429 292.822 361.176 293.633 360.675 294.486C360.169 295.34 359.395 296.336 358.347 297.484L350.713 305.619V308.827H366.887V305.05ZM381.686 284.987C379.294 284.998 377.197 285.541 375.39 286.615C373.578 287.69 372.187 289.207 371.223 291.173C370.253 293.132 369.774 295.393 369.774 297.953V299.639C369.774 302.521 370.538 304.828 372.066 306.556C373.593 308.285 375.601 309.154 378.087 309.154C379.621 309.154 380.996 308.806 382.213 308.116C383.424 307.421 384.367 306.456 385.031 305.213C385.695 303.97 386.027 302.584 386.027 301.046C386.027 298.649 385.421 296.715 384.215 295.245C383.003 293.775 381.37 293.043 379.32 293.043C377.408 293.043 375.822 293.68 374.568 294.955C374.826 293.053 375.606 291.568 376.897 290.498C378.188 289.429 379.889 288.876 382.007 288.844H382.46V284.987H381.686ZM380.421 298.001C381.048 298.786 381.359 299.823 381.359 301.104C381.359 302.368 381.048 303.395 380.427 304.186C379.805 304.981 378.994 305.376 377.987 305.376C376.876 305.376 376.012 304.934 375.395 304.059C374.779 303.179 374.473 301.957 374.473 300.392V298.97C374.763 298.322 375.216 297.8 375.833 297.41C376.449 297.015 377.134 296.82 377.893 296.82C378.951 296.82 379.794 297.21 380.421 298.001Z" fill="#4D4D4D"/>
<g opacity="0.75">
<path d="M234.662 212.188C230.237 208.031 228.604 206.846 228.029 206.451C227.455 206.055 224.473 204.343 223.994 204.074C223.514 203.806 221.012 202.394 221.012 202.394C221.012 202.394 215.633 200.118 214.763 199.717C210.611 198.148 206.336 196.924 201.982 196.056C196.887 195.166 193.526 194.57 191.313 194.57C189.101 194.57 188.279 194.412 187.151 194.396C186.024 194.381 171.704 195.45 168.438 196.056C165.171 196.662 159.307 197.737 157.959 198.037C156.61 198.337 149.693 200.908 148.539 201.403C147.385 201.899 141.811 205.755 141.237 206.145C139.995 207.323 138.868 208.616 137.87 210.007C137.193 211.176 136.707 212.446 136.432 213.768C136.237 214.859 136.047 220.301 136.432 221.887C136.895 223.805 136.622 225.048 137.006 225.644C137.391 226.239 137.97 226.044 138.355 226.634C138.739 227.224 139.124 227.43 139.509 226.634C139.893 225.838 141.237 224.853 141.237 223.863C141.237 222.872 141.426 219.906 141.426 219.906C141.426 219.906 142.196 215.354 144.313 214.164C146.431 212.973 161.615 208.621 163.917 207.841C166.22 207.062 180.065 204.87 183.337 204.87C191.632 204.983 199.887 206.044 207.941 208.031C213.13 209.369 224.952 214.964 228.029 217.335C231.106 219.706 235.431 224.268 236.39 227.04C237.349 229.811 238.498 234.558 238.118 237.924C237.739 241.291 238.118 242.081 239.082 239.705C240.047 237.329 241.39 231.592 241.39 228.225C241.39 224.859 239.061 216.35 234.662 212.188ZM212.076 201.403C210.343 200.708 205.227 199.422 204.479 199.222C203.731 199.022 200.444 198.432 198.905 198.137C196.713 197.733 194.498 197.467 192.272 197.341C190.065 197.247 187.662 197.046 186.314 197.046C184.965 197.046 183.047 196.846 182.473 196.846C181.899 196.846 183.237 196.751 183.432 196.651C183.959 196.383 187.947 196.451 188.432 196.451C188.916 196.451 194.485 197.046 195.159 197.046C195.834 197.046 202.751 198.232 202.751 198.232C204.29 198.332 212.361 201.003 213.225 201.393C214.089 201.783 213.804 202.094 212.076 201.403ZM219.452 204.765C219.452 204.765 218.894 204.348 218.551 204.132C218.117 203.884 217.67 203.657 217.213 203.453C216.854 203.259 216.51 203.037 216.186 202.789C217.046 203.083 217.881 203.446 218.683 203.874C219.089 204.159 220.053 204.865 219.473 204.765H219.452Z" fill="#FFD503"/>
</g>
<g opacity="0.75">
<path d="M240.779 223.325C240.779 227.229 237.85 234.647 235.163 238.045C232.476 241.444 225.142 247.36 218.546 250.521C211.95 253.682 191.182 261.195 176.894 262.323C162.606 263.45 151.236 262.196 140.12 257.797C129.004 253.398 126.027 236.676 125.716 237.629C125.036 239.673 125.352 247.871 126.29 251.285C127.228 254.699 128.956 259.23 132.344 262.57C135.731 265.91 139.556 267.991 140.773 268.434C141.99 268.876 145.315 270.215 146.184 270.367C147.053 270.52 148.486 270.958 149.872 271.184C151.257 271.411 153.981 271.927 155.783 272.074C157.585 272.222 160.688 272.517 161.984 272.517C163.28 272.517 169.481 272.664 170.055 272.664C170.63 272.664 170.345 272.296 169.913 272.296C168.957 272.41 167.994 272.459 167.031 272.443C165.661 272.369 163.644 272.369 162.922 272.369C162.2 272.369 158.739 272.074 158.091 272.001C157.443 271.927 153.475 271.405 152.469 271.332C151.463 271.258 148.36 270.515 147.854 270.441C147.348 270.367 146.916 269.914 147.28 269.772C147.967 269.673 148.667 269.776 149.298 270.067C150.664 270.476 152.061 270.774 153.475 270.958C154.919 271.184 158.164 271.774 160.04 271.7C161.916 271.627 166.889 271.774 167.463 271.774C168.037 271.774 168.111 271.848 168.517 271.848C168.923 271.848 169.165 271.774 169.096 271.321C169.028 270.868 169.96 270.947 170.677 270.947C171.394 270.947 170.603 271.247 171.325 271.474C172.047 271.7 172.479 271.4 173.432 271.326C174.386 271.253 174.149 271.026 174.439 271.026C174.728 271.026 174.655 270.499 175.303 270.436C175.951 270.373 176.82 270.51 176.314 270.583C175.808 270.657 175.666 271.026 176.456 271.026C176.991 271.02 177.522 270.945 178.037 270.805C178.697 270.744 179.35 270.621 179.986 270.436C180.561 270.209 180.703 270.51 181.498 270.51C182.294 270.51 184.164 269.841 185.028 269.841C185.502 269.855 185.972 269.754 186.398 269.546C186.825 269.437 187.261 269.361 187.699 269.319C188.164 269.301 188.623 269.227 189.069 269.098C189.786 268.876 190.075 268.571 191.229 268.429C192.383 268.286 191.229 268.429 191.445 268.429C191.661 268.429 193.553 267.902 194.043 267.833C194.533 267.765 194.98 267.76 194.691 267.538C194.401 267.317 194.833 267.011 195.265 266.943C195.697 266.874 196.419 266.353 196.845 266.353C197.272 266.353 196.845 266.795 196.055 267.022C195.265 267.249 195.191 267.612 195.623 267.465C196.055 267.317 196.677 267.169 197.783 266.795C198.89 266.421 199.801 266.427 200.165 266.269C200.528 266.111 200.381 265.895 200.381 265.599C200.381 265.304 200.955 265.452 201.387 265.225C201.952 265.01 202.531 264.834 203.12 264.699C203.842 264.472 204.848 264.251 204.274 264.472C203.7 264.693 204.058 264.999 204.632 264.846C205.206 264.693 205.28 264.472 205.644 264.398C206.007 264.325 206.002 264.325 206.002 263.871C206.002 263.418 206.582 263.724 206.798 264.019C207.014 264.314 207.535 263.798 208.146 263.171C208.757 262.544 208.146 263.171 208.515 263.044C208.911 262.883 209.32 262.756 209.737 262.665C210.348 262.539 210.348 262.791 210.712 262.539C211.051 262.191 211.471 261.932 211.934 261.785C212.545 261.659 213.035 261.912 213.515 261.659C214.666 261.171 215.771 260.582 216.818 259.899C218.525 258.766 228.298 253.608 229.152 253.229C230.005 252.85 229.889 252.223 230.132 251.849C230.374 251.475 231.233 251.596 231.233 251.596L232.086 250.59C232.94 249.583 232.45 249.71 232.818 249.078C233.187 248.445 233.43 249.331 234.041 248.825C234.652 248.319 235.142 247.318 236.485 245.432C237.434 243.946 238.173 242.336 238.682 240.648C242.855 228.863 240.779 223.325 240.779 223.325ZM221.591 251.138C220.011 251.954 216.47 253.661 215.749 253.961C215.027 254.262 214.31 254.183 214.094 254.488C213.878 254.794 213.441 254.862 213.157 255.015C212.689 255.187 212.231 255.386 211.787 255.611C211.26 255.906 208.036 257.191 206.518 257.686C205.001 258.182 199.237 259.989 197.868 260.436C195.686 261.075 193.472 261.594 191.235 261.991C189.722 262.217 189.791 262.517 189.217 262.66C188.642 262.802 189.143 263.108 188.569 263.108C187.994 263.108 185.903 263.634 185.181 263.703C184.628 263.74 184.074 263.74 183.521 263.703C183.016 263.683 182.51 263.708 182.009 263.777C181.655 263.893 181.294 263.992 180.929 264.072C180.566 264.145 179.776 264.145 177.974 264.367C176.172 264.588 173.791 264.514 174.149 264.44C174.149 264.44 181.525 263.387 182.368 263.329C183.211 263.271 193.4 260.879 194.622 260.731C195.844 260.584 206.445 257.391 209.98 255.99C213.515 254.588 219.711 251.686 221.871 250.569C224.031 249.452 224.61 249.088 224.61 249.088C223.678 249.875 222.667 250.562 221.591 251.138Z" fill="#FFD503"/>
</g>
<g opacity="0.75">
<path d="M179.943 197.31C181.777 197.31 182.63 197.563 183.853 197.563C185.075 197.563 185.433 197.31 185.433 196.93C185.433 196.551 184.459 197.057 185.433 196.551C186.408 196.045 186.413 196.024 186.413 195.545C186.413 195.065 187.635 194.918 187.145 194.417C186.848 194.098 186.638 193.708 186.534 193.285C186.534 193.285 186.903 193.285 186.903 192.4C186.933 191.568 186.37 190.831 185.56 190.64C184.701 190.392 179.938 188.501 176.277 189.507C172.615 190.513 162.958 193.912 158.316 196.804C153.675 199.696 140.851 210.391 136.716 215.423C132.58 220.454 127.433 229.121 126.089 235.301C124.746 241.481 125.599 249.525 127.19 253.666L128.771 257.818C128.771 257.818 127.306 246.87 128.65 241.712C129.993 236.555 130.726 235.174 131.094 234.547C131.463 233.92 132.438 231.276 133.412 229.637C134.387 227.999 140.377 219.954 143.307 217.182C146.236 214.411 152.958 208.252 157.11 205.592C161.261 202.931 167.12 199.928 171.04 198.795C173.959 198.044 176.938 197.546 179.943 197.31Z" fill="#FFD503"/>
</g>
</svg>
