<svg width="88" height="88" viewBox="0 0 88 88" fill="none" xmlns="http://www.w3.org/2000/svg">
<path d="M53.3888 9.88875C52.0113 8.51125 50.1625 7.75 48.2413 7.75H22.25C18.2625 7.75 15 11.0125 15 15V73C15 76.9875 18.2262 80.25 22.2137 80.25H65.75C69.7375 80.25 73 76.9875 73 73V32.5087C73 30.5875 72.2387 28.7388 70.8612 27.3975L53.3888 9.88875ZM54.875 58.5H47.625V65.75C47.625 67.7438 45.9938 69.375 44 69.375C42.0062 69.375 40.375 67.7438 40.375 65.75V58.5H33.125C31.1312 58.5 29.5 56.8688 29.5 54.875C29.5 52.8812 31.1312 51.25 33.125 51.25H40.375V44C40.375 42.0062 42.0062 40.375 44 40.375C45.9938 40.375 47.625 42.0062 47.625 44V51.25H54.875C56.8688 51.25 58.5 52.8812 58.5 54.875C58.5 56.8688 56.8688 58.5 54.875 58.5ZM47.625 29.5V13.1875L67.5625 33.125H51.25C49.2562 33.125 47.625 31.4938 47.625 29.5Z" fill="#D2DCEB"/>
</svg>
