<svg xmlns="http://www.w3.org/2000/svg" xmlns:xlink="http://www.w3.org/1999/xlink" width="500" zoomAndPan="magnify" viewBox="0 0 375 374.999991" height="500" preserveAspectRatio="xMidYMid meet" version="1.0"><defs><g/><clipPath id="dcc2873177"><path d="M 12.441406 8.320312 L 370.804688 8.320312 L 370.804688 366.679688 L 12.441406 366.679688 Z M 12.441406 8.320312 " clip-rule="nonzero"/></clipPath><clipPath id="59ecd7c456"><path d="M 191.621094 8.320312 L 370.804688 187.5 L 191.621094 366.679688 L 12.441406 187.5 L 191.621094 8.320312 " clip-rule="nonzero"/></clipPath></defs><g clip-path="url(#dcc2873177)"><g clip-path="url(#59ecd7c456)"><path fill="#5653d1" d="M 12.441406 8.320312 L 370.804688 8.320312 L 370.804688 366.679688 L 12.441406 366.679688 Z M 12.441406 8.320312 " fill-opacity="1" fill-rule="nonzero"/></g></g><g fill="#ffffff" fill-opacity="1"><g transform="translate(125.220875, 246.374984)"><g><path d="M 102.796875 0 L 40 -70 L 40 -18.40625 C 40 -11.738281 40.929688 -7.070312 42.796875 -4.40625 C 44.660156 -1.738281 46.394531 -0.269531 48 0 L 17.203125 0 C 18.796875 -0.269531 20.59375 -1.703125 22.59375 -4.296875 C 24.59375 -6.898438 25.59375 -11.601562 25.59375 -18.40625 L 25.59375 -119 C 25.59375 -125.800781 24.660156 -130.46875 22.796875 -133 C 20.929688 -135.53125 19.066406 -137.0625 17.203125 -137.59375 L 48 -137.59375 C 46.394531 -137.332031 44.660156 -135.898438 42.796875 -133.296875 C 40.929688 -130.703125 40 -125.9375 40 -119 L 40 -70.59375 L 87.40625 -117.796875 C 95 -125.398438 98.796875 -130.601562 98.796875 -133.40625 C 98.796875 -135.800781 97.863281 -137.195312 96 -137.59375 L 127.40625 -137.59375 C 125.269531 -137.332031 121.898438 -135.898438 117.296875 -133.296875 C 112.703125 -130.703125 106.800781 -125.800781 99.59375 -118.59375 L 54.796875 -74.203125 L 105.40625 -19.203125 C 111.53125 -12.128906 116.359375 -7.289062 119.890625 -4.6875 C 123.429688 -2.09375 125.9375 -0.53125 127.40625 0 Z M 102.796875 0 "/></g></g></g></svg>